<svg class="sm-icon" viewBox="0 0 40 40" fill="none" xmlns="http://www.w3.org/2000/svg">
    <g>
        <circle cx="20" cy="20" r="20" fill="#2D303D" fill-opacity="0.2"/>
        <circle cx="20" cy="20" r="20" fill="url(#paint0_radial_1242_1788)"/>
        <circle cx="20" cy="20" r="20" fill="url(#paint1_radial_1242_1788)"/>
        <circle class="sm-icon-bg hover" cx="20" cy="20" r="20" fill="url(#paint0_linear_980_1273)"/>
    </g>
    <path class="sm-icon-path" d="M27.4849 13.4252C26.1685 12.8211 24.7568 12.3761 23.2808 12.1212C23.2539 12.1163 23.2271 12.1286 23.2132 12.1531C23.0317 12.4761 22.8305 12.8973 22.6897 13.2284C21.1022 12.9908 19.5228 12.9908 17.9678 13.2284C17.8269 12.89 17.6185 12.4761 17.4361 12.1531C17.4223 12.1294 17.3954 12.1171 17.3686 12.1212C15.8934 12.3753 14.4817 12.8203 13.1644 13.4252C13.153 13.4301 13.1432 13.4383 13.1367 13.4489C10.459 17.4493 9.72551 21.3514 10.0854 25.2051C10.087 25.224 10.0976 25.242 10.1122 25.2535C11.8789 26.5509 13.5902 27.3385 15.2697 27.8606C15.2966 27.8688 15.3251 27.8589 15.3422 27.8368C15.7395 27.2942 16.0936 26.7222 16.3973 26.1206C16.4152 26.0853 16.3981 26.0435 16.3615 26.0296C15.7997 25.8165 15.2648 25.5567 14.7503 25.2617C14.7096 25.2379 14.7064 25.1797 14.7438 25.1518C14.8521 25.0707 14.9604 24.9863 15.0638 24.901C15.0825 24.8855 15.1085 24.8822 15.1305 24.892C18.5108 26.4353 22.1703 26.4353 25.5107 24.892C25.5327 24.8814 25.5587 24.8846 25.5782 24.9002C25.6817 24.9854 25.7899 25.0707 25.899 25.1518C25.9365 25.1797 25.934 25.2379 25.8933 25.2617C25.3788 25.5624 24.8439 25.8165 24.2813 26.0288C24.2447 26.0427 24.2284 26.0853 24.2463 26.1206C24.5565 26.7213 24.9107 27.2934 25.3006 27.836C25.3169 27.8589 25.3462 27.8688 25.3731 27.8606C27.0608 27.3385 28.7721 26.5509 30.5387 25.2535C30.5542 25.242 30.564 25.2248 30.5656 25.2059C30.9963 20.7506 29.8443 16.8805 27.5118 13.4497C27.5061 13.4383 27.4963 13.4301 27.4849 13.4252ZM16.9021 22.8586C15.8844 22.8586 15.0458 21.9243 15.0458 20.7769C15.0458 19.6294 15.8681 18.6951 16.9021 18.6951C17.9441 18.6951 18.7746 19.6376 18.7583 20.7769C18.7583 21.9243 17.936 22.8586 16.9021 22.8586ZM23.7652 22.8586C22.7475 22.8586 21.909 21.9243 21.909 20.7769C21.909 19.6294 22.7312 18.6951 23.7652 18.6951C24.8073 18.6951 25.6377 19.6376 25.6214 20.7769C25.6214 21.9243 24.8073 22.8586 23.7652 22.8586Z" fill="#EFDAA9"/>
    <defs>
        <radialGradient id="paint0_radial_1242_1788" cx="0" cy="0" r="1" gradientUnits="userSpaceOnUse" gradientTransform="translate(20 18.5) rotate(90) scale(23)">
            <stop offset="0.599181" stop-color="white" stop-opacity="0"/>
            <stop offset="0.899181" stop-color="white" stop-opacity="0.1"/>
            <stop offset="1" stop-color="white" stop-opacity="0.6"/>
        </radialGradient>
        <radialGradient id="paint1_radial_1242_1788" cx="0" cy="0" r="1" gradientUnits="userSpaceOnUse" gradientTransform="translate(20 18) rotate(90) scale(24 23.7067)">
            <stop offset="0.539246" stop-color="#EFDDA9" stop-opacity="0"/>
            <stop offset="0.644881" stop-color="#EFDDA9" stop-opacity="0.0479951"/>
            <stop offset="0.7295" stop-color="#EFDDA9" stop-opacity="0.1"/>
            <stop offset="1" stop-color="#EFDDA9" stop-opacity="0.6"/>
        </radialGradient>
        <linearGradient id="paint0_linear_980_1273" x1="6.66667" y1="14.2222" x2="39.0473" y2="8.08953" gradientUnits="userSpaceOnUse">
            <stop stop-color="#EFDDA9"/>
            <stop offset="1" stop-color="#F0A8A8"/>
        </linearGradient>
    </defs>
</svg>