<svg width="40" height="40" class="sm-icon" viewBox="0 0 40 40" fill="none" xmlns="http://www.w3.org/2000/svg">
    <g filter="url(#filter0_bii_980_1268)">
        <circle class="sm-icon-bg" cx="20" cy="20" r="20" fill="#2D303D" fill-opacity="0.2"/>
        <circle class="sm-icon-bg hover" cx="20" cy="20" r="20" fill="url(#paint0_linear_980_1273)"/>
    </g>
    <path class="sm-icon-path" fill-rule="evenodd" clip-rule="evenodd" d="M26.7474 13.6861C27.1288 14.0673 27.4264 14.524 27.6211 15.0269C27.8457 15.6236 27.9655 16.2545 27.9753 16.8919C28.0224 17.697 28.0224 17.9578 28.0224 20.0129C28.0224 22.068 28.0115 22.3246 27.9753 23.1339C27.9627 23.7631 27.8441 24.3839 27.6228 24.9728C27.4278 25.4756 27.1301 25.9323 26.7488 26.3137C26.3674 26.6951 25.9107 26.9927 25.4079 27.1878C24.8192 27.4083 24.1974 27.5274 23.5689 27.5402C22.7656 27.5865 22.5023 27.5865 20.448 27.5865C18.3937 27.5865 18.1371 27.5756 17.327 27.5402C16.6972 27.5195 16.0756 27.3915 15.4889 27.1617C14.9859 26.967 14.5291 26.6695 14.1475 26.2883C13.766 25.907 13.4682 25.4504 13.2731 24.9476C13.0519 24.3579 12.9333 23.737 12.9206 23.1078C12.8735 22.3027 12.8735 22.0411 12.8735 19.9868C12.8735 17.9317 12.8845 17.6751 12.9206 16.8659C12.9329 16.2373 13.0521 15.6155 13.2731 15.0269C13.4676 14.5239 13.7652 14.0671 14.1466 13.6858C14.528 13.3045 14.985 13.0071 15.4881 12.8128C16.0759 12.5912 16.6973 12.4717 17.3253 12.4595C18.1287 12.4141 18.392 12.4141 20.4463 12.4141C22.5006 12.4141 22.7572 12.4242 23.5673 12.4595C24.1958 12.4724 24.8176 12.5919 25.4062 12.8128C25.9092 13.0074 26.366 13.3048 26.7474 13.6861ZM26.3349 24.4655C26.5026 24.0106 26.5911 23.5303 26.5965 23.0455V23.0464H26.6058C26.642 22.2422 26.642 22.0218 26.642 19.9727V19.9725C26.642 17.9224 26.6327 17.6978 26.5965 16.8978C26.5887 16.4185 26.5002 15.9438 26.3349 15.4938C26.2085 15.1666 26.0151 14.8695 25.767 14.6215C25.519 14.3735 25.2219 14.18 24.8947 14.0536C24.445 13.8863 23.9697 13.7978 23.4899 13.792C22.6764 13.7457 22.4661 13.7457 20.416 13.7457C18.3659 13.7457 18.1413 13.7558 17.3413 13.792C16.8618 13.7987 16.387 13.8872 15.9373 14.0536C15.2736 14.3077 14.7478 14.8301 14.4912 15.4938C14.3235 15.9484 14.235 16.4284 14.2296 16.913C14.185 17.7281 14.185 17.9376 14.185 19.9877C14.185 22.0369 14.1934 22.2623 14.2296 23.0615C14.2374 23.5409 14.3259 24.0155 14.4912 24.4655C14.6181 24.7933 14.8124 25.0908 15.0615 25.3387C15.3106 25.5866 15.609 25.7795 15.9373 25.9049C16.3868 26.0721 16.8617 26.1606 17.3413 26.1665C18.1556 26.2128 18.3651 26.2128 20.416 26.2128C22.4652 26.2128 22.6907 26.2035 23.4899 26.1665C23.9697 26.1603 24.4448 26.0718 24.8947 25.9049C25.2219 25.7787 25.5191 25.5855 25.7671 25.3376C26.0152 25.0897 26.2086 24.7927 26.3349 24.4655ZM24.4864 16.8557C24.9873 16.8557 25.3933 16.4497 25.3933 15.9489C25.3933 15.4481 24.9873 15.0421 24.4864 15.0421C23.9856 15.0421 23.5796 15.4481 23.5796 15.9489C23.5796 16.4497 23.9856 16.8557 24.4864 16.8557ZM20.4426 16.0919C19.4109 16.0919 18.4215 16.5017 17.692 17.2312C16.9626 17.9607 16.5527 18.9501 16.5527 19.9818C16.5527 21.0134 16.9626 22.0028 17.692 22.7323C18.4215 23.4618 19.4109 23.8716 20.4426 23.8716C21.4742 23.8716 22.4636 23.4618 23.1931 22.7323C23.9226 22.0028 24.3324 21.0134 24.3324 19.9818C24.3324 18.9501 23.9226 17.9607 23.1931 17.2312C22.4636 16.5017 21.4742 16.0919 20.4426 16.0919ZM20.4426 22.508C19.7724 22.508 19.1296 22.2417 18.6557 21.7678C18.1818 21.2939 17.9155 20.6511 17.9155 19.9809C17.9155 19.3107 18.1818 18.6679 18.6557 18.194C19.1296 17.7201 19.7724 17.4539 20.4426 17.4539C21.1128 17.4539 21.7556 17.7201 22.2295 18.194C22.7034 18.6679 22.9696 19.3107 22.9696 19.9809C22.9696 20.6511 22.7034 21.2939 22.2295 21.7678C21.7556 22.2417 21.1128 22.508 20.4426 22.508Z" fill="#EFDAA9"/>
    <defs>
        <filter id="filter0_bii_980_1268" x="-13.7931" y="-13.7931" width="67.5862" height="67.5862" filterUnits="userSpaceOnUse" color-interpolation-filters="sRGB">
        <feFlood flood-opacity="0" result="BackgroundImageFix"/>
        <feGaussianBlur in="BackgroundImage" stdDeviation="6.89655"/>
        <feComposite in2="SourceAlpha" operator="in" result="effect1_backgroundBlur_980_1268"/>
        <feBlend mode="normal" in="SourceGraphic" in2="effect1_backgroundBlur_980_1268" result="shape"/>
        <feColorMatrix in="SourceAlpha" type="matrix" values="0 0 0 0 0 0 0 0 0 0 0 0 0 0 0 0 0 0 127 0" result="hardAlpha"/>
        <feOffset dy="0.91954"/>
        <feGaussianBlur stdDeviation="0.91954"/>
        <feComposite in2="hardAlpha" operator="arithmetic" k2="-1" k3="1"/>
        <feColorMatrix type="matrix" values="0 0 0 0 1 0 0 0 0 1 0 0 0 0 1 0 0 0 0.1 0"/>
        <feBlend mode="normal" in2="shape" result="effect2_innerShadow_980_1268"/>
        <feColorMatrix in="SourceAlpha" type="matrix" values="0 0 0 0 0 0 0 0 0 0 0 0 0 0 0 0 0 0 127 0" result="hardAlpha"/>
        <feOffset dy="-2.29885"/>
        <feGaussianBlur stdDeviation="2.75862"/>
        <feComposite in2="hardAlpha" operator="arithmetic" k2="-1" k3="1"/>
        <feColorMatrix type="matrix" values="0 0 0 0 0.937255 0 0 0 0 0.866667 0 0 0 0 0.662745 0 0 0 0.6 0"/>
        <feBlend mode="normal" in2="effect2_innerShadow_980_1268" result="effect3_innerShadow_980_1268"/>
        </filter>
        <linearGradient id="paint0_linear_980_1273" x1="6.66667" y1="14.2222" x2="39.0473" y2="8.08953" gradientUnits="userSpaceOnUse">
            <stop stop-color="#EFDDA9"/>
            <stop offset="1" stop-color="#F0A8A8"/>
        </linearGradient>
    </defs>
</svg>
