<svg class="sm-icon" viewBox="0 0 40 40" fill="none" xmlns="http://www.w3.org/2000/svg">
    <g filter="url(#filter0_bii_980_1268)">
        <circle class="sm-icon-bg" cx="20" cy="20" r="20" fill="#2D303D" fill-opacity="0.2"/>
        <circle class="sm-icon-bg hover" cx="20" cy="20" r="20" fill="url(#paint0_linear_980_1273)"/>
    </g>
    <path class="sm-icon-path" d="M27.4559 16.921C27.4467 16.2902 27.3301 15.6644 27.1067 15.0744C26.7159 14.0669 25.9201 13.2702 24.9126 12.8802C24.3301 12.661 23.7142 12.5435 23.0909 12.5302C22.2892 12.4944 22.0351 12.4844 20.0001 12.4844C17.9651 12.4844 17.7042 12.4844 16.9084 12.5302C16.2859 12.5435 15.6701 12.661 15.0876 12.8802C14.0801 13.2702 13.2834 14.0669 12.8934 15.0744C12.6742 15.6569 12.5559 16.2727 12.5442 16.8952C12.5084 17.6977 12.4976 17.9519 12.4976 19.9869C12.4976 22.0219 12.4976 22.2819 12.5442 23.0785C12.5567 23.7019 12.6742 24.3169 12.8934 24.901C13.2842 25.9077 14.0801 26.7044 15.0884 27.0944C15.6684 27.321 16.2842 27.4494 16.9092 27.4694C17.7117 27.5052 17.9659 27.516 20.0009 27.516C22.0359 27.516 22.2967 27.516 23.0926 27.4694C23.7151 27.4569 24.3309 27.3394 24.9142 27.1202C25.9217 26.7294 26.7176 25.9327 27.1084 24.926C27.3276 24.3427 27.4451 23.7277 27.4576 23.1035C27.4934 22.3019 27.5042 22.0477 27.5042 20.0119C27.5026 17.9769 27.5026 17.7185 27.4559 16.921ZM19.9951 23.8352C17.8667 23.8352 16.1426 22.111 16.1426 19.9827C16.1426 17.8544 17.8667 16.1302 19.9951 16.1302C22.1217 16.1302 23.8476 17.8544 23.8476 19.9827C23.8476 22.111 22.1217 23.8352 19.9951 23.8352ZM24.0009 16.886C23.5034 16.886 23.1026 16.4844 23.1026 15.9877C23.1026 15.491 23.5034 15.0894 24.0009 15.0894C24.4967 15.0894 24.8984 15.491 24.8984 15.9877C24.8984 16.4844 24.4967 16.886 24.0009 16.886Z" fill="#EFDAA9"/>
    <path class="sm-icon-path" d="M19.9949 22.4855C21.377 22.4855 22.4974 21.3651 22.4974 19.983C22.4974 18.6009 21.377 17.4805 19.9949 17.4805C18.6128 17.4805 17.4924 18.6009 17.4924 19.983C17.4924 21.3651 18.6128 22.4855 19.9949 22.4855Z" fill="#EFDAA9"/>
    <defs>
        <filter id="filter0_bii_980_1268" x="-13.7931" y="-13.7931" width="67.5862" height="67.5862" filterUnits="userSpaceOnUse" color-interpolation-filters="sRGB">
        <feFlood flood-opacity="0" result="BackgroundImageFix"/>
        <feGaussianBlur in="BackgroundImage" stdDeviation="6.89655"/>
        <feComposite in2="SourceAlpha" operator="in" result="effect1_backgroundBlur_980_1268"/>
        <feBlend mode="normal" in="SourceGraphic" in2="effect1_backgroundBlur_980_1268" result="shape"/>
        <feColorMatrix in="SourceAlpha" type="matrix" values="0 0 0 0 0 0 0 0 0 0 0 0 0 0 0 0 0 0 127 0" result="hardAlpha"/>
        <feOffset dy="0.91954"/>
        <feGaussianBlur stdDeviation="0.91954"/>
        <feComposite in2="hardAlpha" operator="arithmetic" k2="-1" k3="1"/>
        <feColorMatrix type="matrix" values="0 0 0 0 1 0 0 0 0 1 0 0 0 0 1 0 0 0 0.1 0"/>
        <feBlend mode="normal" in2="shape" result="effect2_innerShadow_980_1268"/>
        <feColorMatrix in="SourceAlpha" type="matrix" values="0 0 0 0 0 0 0 0 0 0 0 0 0 0 0 0 0 0 127 0" result="hardAlpha"/>
        <feOffset dy="-2.29885"/>
        <feGaussianBlur stdDeviation="2.75862"/>
        <feComposite in2="hardAlpha" operator="arithmetic" k2="-1" k3="1"/>
        <feColorMatrix type="matrix" values="0 0 0 0 0.937255 0 0 0 0 0.866667 0 0 0 0 0.662745 0 0 0 0.6 0"/>
        <feBlend mode="normal" in2="effect2_innerShadow_980_1268" result="effect3_innerShadow_980_1268"/>
        </filter>
        <linearGradient id="paint0_linear_980_1273" x1="6.66667" y1="14.2222" x2="39.0473" y2="8.08953" gradientUnits="userSpaceOnUse">
            <stop stop-color="#EFDDA9"/>
            <stop offset="1" stop-color="#F0A8A8"/>
        </linearGradient>
    </defs>
</svg>
