<svg class="sm-icon" viewBox="0 0 40 40" fill="none" xmlns="http://www.w3.org/2000/svg">
    <g>
        <circle cx="20" cy="20" r="20" fill="#2D303D" fill-opacity="0.2"/>
        <circle cx="20" cy="20" r="20" fill="url(#paint0_radial_1242_1788)"/>
        <circle cx="20" cy="20" r="20" fill="url(#paint1_radial_1242_1788)"/>
        <circle class="sm-icon-bg hover" cx="20" cy="20" r="20" fill="url(#paint0_linear_980_1273)"/>
    </g>
    <path class="sm-icon-path" d="M15.1524 14.9973C16.1594 14.9973 16.9758 14.1809 16.9758 13.1739C16.9758 12.1669 16.1594 11.3506 15.1524 11.3506C14.1454 11.3506 13.3291 12.1669 13.3291 13.1739C13.3291 14.1809 14.1454 14.9973 15.1524 14.9973Z" fill="#EFDAA9"/>
    <path class="sm-icon-path" d="M18.6974 16.3789V26.4947H21.8383V21.4922C21.8383 20.1722 22.0866 18.8939 23.7233 18.8939C25.3374 18.8939 25.3574 20.4031 25.3574 21.5756V26.4956H28.4999V20.9481C28.4999 18.2231 27.9133 16.1289 24.7283 16.1289C23.1991 16.1289 22.1741 16.9681 21.7549 17.7622H21.7124V16.3789H18.6974ZM13.5791 16.3789H16.7249V26.4947H13.5791V16.3789Z" fill="#EFDAA9"/>
    <defs>
        <linearGradient id="paint0_linear_980_1273" x1="6.66667" y1="14.2222" x2="39.0473" y2="8.08953" gradientUnits="userSpaceOnUse">
            <stop stop-color="#EFDDA9"/>
            <stop offset="1" stop-color="#F0A8A8"/>
        </linearGradient>
        <radialGradient id="paint0_radial_1242_1788" cx="0" cy="0" r="1" gradientUnits="userSpaceOnUse" gradientTransform="translate(20 18.5) rotate(90) scale(23)">
            <stop offset="0.599181" stop-color="white" stop-opacity="0"/>
            <stop offset="0.899181" stop-color="white" stop-opacity="0.1"/>
            <stop offset="1" stop-color="white" stop-opacity="0.6"/>
        </radialGradient>
        <radialGradient id="paint1_radial_1242_1788" cx="0" cy="0" r="1" gradientUnits="userSpaceOnUse" gradientTransform="translate(20 18) rotate(90) scale(24 23.7067)">
            <stop offset="0.539246" stop-color="#EFDDA9" stop-opacity="0"/>
            <stop offset="0.644881" stop-color="#EFDDA9" stop-opacity="0.0479951"/>
            <stop offset="0.7295" stop-color="#EFDDA9" stop-opacity="0.1"/>
            <stop offset="1" stop-color="#EFDDA9" stop-opacity="0.6"/>
        </radialGradient>
    </defs>
</svg>