<svg class="sm-icon" viewBox="0 0 40 40" fill="none" xmlns="http://www.w3.org/2000/svg">
    <g filter="url(#filter0_bii_980_1268)">
        <circle class="sm-icon-bg" cx="20" cy="20" r="20" fill="#2D303D" fill-opacity="0.2"/>
        <circle class="sm-icon-bg hover" cx="20" cy="20" r="20" fill="url(#paint0_linear_980_1273)"/>
    </g>
    <path class="sm-icon-path" d="M15.1524 14.9973C16.1594 14.9973 16.9758 14.1809 16.9758 13.1739C16.9758 12.1669 16.1594 11.3506 15.1524 11.3506C14.1454 11.3506 13.3291 12.1669 13.3291 13.1739C13.3291 14.1809 14.1454 14.9973 15.1524 14.9973Z" fill="#EFDAA9"/>
    <path class="sm-icon-path" d="M18.6974 16.3789V26.4947H21.8383V21.4922C21.8383 20.1722 22.0866 18.8939 23.7233 18.8939C25.3374 18.8939 25.3574 20.4031 25.3574 21.5756V26.4956H28.4999V20.9481C28.4999 18.2231 27.9133 16.1289 24.7283 16.1289C23.1991 16.1289 22.1741 16.9681 21.7549 17.7622H21.7124V16.3789H18.6974ZM13.5791 16.3789H16.7249V26.4947H13.5791V16.3789Z" fill="#EFDAA9"/>
    <defs>
        <filter id="filter0_bii_980_1268" x="-13.7931" y="-13.7931" width="67.5862" height="67.5862" filterUnits="userSpaceOnUse" color-interpolation-filters="sRGB">
        <feFlood flood-opacity="0" result="BackgroundImageFix"/>
        <feGaussianBlur in="BackgroundImage" stdDeviation="6.89655"/>
        <feComposite in2="SourceAlpha" operator="in" result="effect1_backgroundBlur_980_1268"/>
        <feBlend mode="normal" in="SourceGraphic" in2="effect1_backgroundBlur_980_1268" result="shape"/>
        <feColorMatrix in="SourceAlpha" type="matrix" values="0 0 0 0 0 0 0 0 0 0 0 0 0 0 0 0 0 0 127 0" result="hardAlpha"/>
        <feOffset dy="0.91954"/>
        <feGaussianBlur stdDeviation="0.91954"/>
        <feComposite in2="hardAlpha" operator="arithmetic" k2="-1" k3="1"/>
        <feColorMatrix type="matrix" values="0 0 0 0 1 0 0 0 0 1 0 0 0 0 1 0 0 0 0.1 0"/>
        <feBlend mode="normal" in2="shape" result="effect2_innerShadow_980_1268"/>
        <feColorMatrix in="SourceAlpha" type="matrix" values="0 0 0 0 0 0 0 0 0 0 0 0 0 0 0 0 0 0 127 0" result="hardAlpha"/>
        <feOffset dy="-2.29885"/>
        <feGaussianBlur stdDeviation="2.75862"/>
        <feComposite in2="hardAlpha" operator="arithmetic" k2="-1" k3="1"/>
        <feColorMatrix type="matrix" values="0 0 0 0 0.937255 0 0 0 0 0.866667 0 0 0 0 0.662745 0 0 0 0.6 0"/>
        <feBlend mode="normal" in2="effect2_innerShadow_980_1268" result="effect3_innerShadow_980_1268"/>
        </filter>
        <linearGradient id="paint0_linear_980_1273" x1="6.66667" y1="14.2222" x2="39.0473" y2="8.08953" gradientUnits="userSpaceOnUse">
            <stop stop-color="#EFDDA9"/>
            <stop offset="1" stop-color="#F0A8A8"/>
        </linearGradient>
    </defs>
</svg>