<svg viewBox="0 0 295 64" fill="none" xmlns="http://www.w3.org/2000/svg">
<path d="M274.875 18.0537H292.22L295 13.2607H267.04C268.684 14.0549 269.907 15.3177 268.581 17.6288L262.644 27.9334C261.85 29.2994 260.73 31.3246 261.505 32.4563C262.251 33.7032 264.876 34.0923 266.691 34.0923H282.996L285.776 29.2716H269.828C268.994 29.2716 268.76 28.7037 269.189 27.9334L274.875 18.0537Z" fill="white"/>
<path d="M192.239 17.6367L186.322 27.9334C185.528 29.2994 184.412 31.3246 185.182 32.4563C185.929 33.7032 188.554 34.0923 190.368 34.0923H206.654L209.433 29.2716H193.47C192.636 29.2716 192.402 28.7037 192.834 27.9334L198.533 18.0537H215.878L218.658 13.2607H190.69C192.342 14.0668 193.565 15.3177 192.239 17.6367Z" fill="white"/>
<path d="M255.33 17.6963L245.8 34.2114H252.404L264.503 13.2607H253.829C255.509 14.0668 256.688 15.3733 255.33 17.6963Z" fill="white"/>
<path d="M228.14 34.1519L237.385 18.1132H248.456L251.271 13.2607H219.817C221.52 14.0549 223.049 15.2859 221.636 17.7241L221.405 18.1212H231.015L221.775 34.1598L228.14 34.1519Z" fill="white"/>
<path d="M167.448 13.2605C168.711 13.7688 169.374 14.8489 168.572 16.2387C168.283 16.7119 167.94 17.1503 167.551 17.5452L152.064 34.1795L160.038 34.0405L175.005 18.0534H177.868L176.073 25.8643H170.513L165.911 30.7128H174.997L174.202 34.1636H181.16L185.754 13.2446L167.448 13.2605Z" fill="white"/>
<path d="M138.777 29.2994L148.049 13.2607H137.395C139.039 14.0549 140.214 15.405 138.896 17.6963L129.417 34.1519H149.499L152.278 29.2994H138.777Z" fill="white"/>
<path d="M113.157 13.2605C114.416 13.7688 115.083 14.8489 114.281 16.2387C113.992 16.7129 113.648 17.1514 113.256 17.5452L97.7893 34.1795L105.767 34.0405L120.734 18.0534H123.581L121.782 25.8643H116.223L111.624 30.7128H120.706L119.912 34.1636H126.873L131.467 13.2446L113.157 13.2605Z" fill="white"/>
<path d="M96.7961 30.1174L100.743 23.2834H90.0653C91.737 24.0776 92.9164 25.3959 91.5623 27.715L90.649 29.3034H81.2179C80.3244 29.3034 80.1656 28.799 80.6381 27.9651L86.3047 18.1172H103.682L106.505 13.2607H78.4382C80.11 14.0549 81.2973 15.3455 79.9352 17.6963L74.0344 27.9612C73.9049 28.1424 73.7856 28.3306 73.677 28.5251C72.9701 29.7481 72.5055 31.0863 72.8192 32.1267C73.2719 33.6436 76.5877 34.1519 78.462 34.1519H94.4691L96.7961 30.1174Z" fill="white"/>
<path d="M60.926 50.5955H62.2563L64.1425 47.3989H70.7979L71.739 45.7986H65.0837L66.0248 44.1983H72.6802L73.6213 42.606H65.6316L60.926 50.5955Z" fill="white"/>
<path d="M80.7695 50.5955H82.0998L86.8054 42.606H85.4752L80.7695 50.5955Z" fill="white"/>
<path d="M95.8394 47.3986C95.3099 48.2801 95.1273 49.0333 95.2914 49.6581C95.4423 50.2815 95.8831 50.5952 96.6217 50.5952H101.943L104.77 45.7983H100.112L99.1711 47.3867H102.495L101.554 48.9751H97.5827C97.4334 48.9953 97.2819 48.9582 97.1589 48.8713C97.0358 48.7843 96.9503 48.654 96.9195 48.5065C96.8582 48.1091 96.9567 47.7037 97.1935 47.3787L99.0758 44.1821H105.711L106.652 42.5938H98.6628L95.8394 47.3986Z" fill="white"/>
<path d="M123.279 45.7986H117.954L119.836 42.606H118.502L113.796 50.5955H115.13L117.013 47.3989H122.338L120.452 50.5955H121.786L126.491 42.606H125.161L123.279 45.7986Z" fill="white"/>
<path d="M137.407 44.1983H140.512L136.744 50.5955H138.078L141.847 44.1983H144.952L145.889 42.606H138.344L137.407 44.1983Z" fill="white"/>
<path d="M172.32 42.606H170.986L166.28 50.5955H174.27L175.211 48.9952H168.551L172.32 42.606Z" fill="white"/>
<path d="M186.124 50.5955H194.109L195.054 48.9952H188.395L189.34 47.3989H195.995L196.937 45.7986H190.281L191.222 44.1983H197.878L198.819 42.606H190.829L186.124 50.5955Z" fill="white"/>
<path d="M216.001 42.6099H210.672L205.967 50.5955H207.297L208.711 48.2129H214.036L212.622 50.5955H213.956L216.78 45.7985C217.3 44.921 217.483 44.1665 217.332 43.5431C217.181 42.9196 216.736 42.6099 216.001 42.6099ZM215.45 45.7866L214.977 46.5808H209.652L211.066 44.1982H215.064C215.214 44.178 215.365 44.2151 215.488 44.302C215.611 44.389 215.697 44.5193 215.727 44.6668C215.782 45.0656 215.682 45.4701 215.45 45.7985V45.7866Z" fill="white"/>
<path d="M227.691 47.3986C227.162 48.2801 226.979 49.0333 227.143 49.658C227.294 50.2815 227.735 50.5952 228.474 50.5952H233.795L236.622 45.7983H231.964L231.023 47.3867H234.347L233.405 48.9751H229.415C229.265 48.9953 229.114 48.9582 228.991 48.8713C228.868 48.7843 228.782 48.654 228.751 48.5065C228.69 48.1091 228.789 47.7037 229.025 47.3787L230.908 44.1821H237.547L238.488 42.5938H230.515L227.691 47.3986Z" fill="white"/>
<path d="M254.191 47.3988C253.926 47.8465 253.567 48.2313 253.139 48.5266C252.791 48.8036 252.367 48.9672 251.924 48.9951H247.925L251.689 42.6099H250.359L245.649 50.5954H250.978C251.868 50.5391 252.719 50.212 253.417 49.6583C254.273 49.065 254.993 48.2945 255.525 47.3988L258.345 42.6099H257.006L254.191 47.3988Z" fill="white"/>
<path d="M265.492 50.5955H273.481L274.422 48.9952H267.767L268.708 47.3989H275.364L276.305 45.7986H269.649L270.59 44.1983H277.246L278.187 42.606H270.197L265.492 50.5955Z" fill="white"/>
<path fill-rule="evenodd" clip-rule="evenodd" d="M25.8415 12.2235C29.2667 14.4638 32.9685 15.0604 36.3559 15.0604C39.7433 15.0604 43.4452 14.4638 46.8661 12.2235C52.53 7.85978 59.221 0.221108 59.221 0.221108C59.221 0.221108 46.6062 0 45.73 0C45.2437 0 44.9586 0.538169 44.5855 1.25156C44.2692 1.911 43.8598 2.5221 43.3697 3.06631C42.112 4.37628 39.6595 5.46513 36.3559 5.46513C33.0524 5.46513 30.3776 4.37628 29.2918 3.06631C28.9026 2.57597 28.5575 2.05247 28.2605 1.50187C27.791 0.667499 27.422 0.016691 26.8687 0.016691C25.9925 0.016691 13.4909 0.237799 13.4909 0.237799C13.4909 0.237799 20.2909 7.85978 25.8415 12.2235ZM69.5596 5.88653L72.8464 0.216985L66.2686 0.216985L57.4647 9.05713L69.5596 5.88653ZM41.5923 24.0712C43.2818 21.1551 45.6547 18.2598 49.3146 16.4326C55.9469 13.7334 65.9372 11.7893 65.9372 11.7893C65.9372 11.7893 59.8248 22.7696 59.3846 23.5247C59.1429 23.9436 58.5366 23.9213 57.747 23.8924L57.7328 23.8918C57.0005 23.8337 56.2636 23.8801 55.5444 24.0295C53.7753 24.4467 51.6162 26.0362 49.9644 28.8814C48.3126 31.7266 47.9269 34.5759 48.5223 36.1696C48.7523 36.7491 49.0329 37.3075 49.3607 37.8383C49.8386 38.6477 50.2243 39.3068 49.956 39.7741C49.5158 40.5333 43.0764 51.1966 43.0764 51.1966C43.0764 51.1966 39.8273 41.5179 38.8044 34.5467C38.5654 30.4792 39.9028 26.9874 41.5923 24.0712ZM36.2973 63.0744L33.0063 57.4048L36.2973 45.3982L39.5883 57.4048L36.2973 63.0744ZM23.5025 16.4326C27.1624 18.2598 29.552 21.1509 31.229 24.0712C32.9227 26.9873 34.2559 30.4792 34.0337 34.5384C33.0107 41.5095 29.7617 51.1882 29.7617 51.1882C29.7617 51.1882 23.3013 40.525 22.882 39.7657C22.6137 39.2985 22.9994 38.6393 23.4773 37.83C23.8036 37.2982 24.084 36.74 24.3158 36.1612C24.9111 34.5676 24.5254 31.7224 22.8736 28.873C21.2219 26.0236 19.0418 24.4425 17.2727 24.0253C16.5549 23.8759 15.8194 23.8295 15.0884 23.8876C14.2751 23.9377 13.6798 23.9377 13.4367 23.5205C12.9965 22.7654 6.87983 11.7851 6.87983 11.7851C6.87983 11.7851 16.8744 13.7334 23.5025 16.4326ZM0 0.216985L6.58198 0.216985L15.3859 9.05714L3.29099 5.88653L0 0.216985Z" fill="white"/>
</svg>
