<svg viewBox="0 0 160 96" fill="none" xmlns="http://www.w3.org/2000/svg">
<path d="M112.02 24.1746L121.28 35.0546C122.34 36.2766 123.28 37.2818 123.66 37.8534C126.429 40.6056 127.982 44.3252 127.98 48.2012C127.72 52.774 124.74 55.8882 121.98 59.2192L115.5 66.8274L112.12 70.7694C111.999 70.9052 111.921 71.0732 111.895 71.2526C111.87 71.4318 111.898 71.6144 111.977 71.778C112.055 71.9416 112.181 72.0788 112.338 72.1728C112.495 72.2666 112.676 72.3132 112.86 72.3068H146.64C151.8 72.3068 158.3 76.643 157.92 83.2262C157.909 86.2182 156.699 89.085 154.552 91.2006C152.405 93.3164 149.496 94.5096 146.46 94.52H93.56C90.08 94.52 80.72 94.8946 78.1 86.912C77.5428 85.2438 77.4666 83.4562 77.88 81.7478C78.6416 79.222 79.8464 76.847 81.44 74.731C84.1 70.789 86.98 66.847 89.82 63.0232C93.48 58.0168 97.24 53.1682 100.94 48.0632C101.071 47.897 101.143 47.6924 101.143 47.4818C101.143 47.2712 101.071 47.0666 100.94 46.9004L87.5 31.1322C87.4124 31.018 87.299 30.9252 87.1688 30.8614C87.0388 30.7976 86.8954 30.7644 86.75 30.7644C86.6046 30.7644 86.4612 30.7976 86.3312 30.8614C86.201 30.9252 86.0876 31.018 86 31.1322C82.4 35.9218 66.64 57.13 63.28 61.4268C59.92 65.7236 51.64 65.96 47.06 61.4268L26.04 40.6326C25.9058 40.4998 25.7344 40.4092 25.548 40.3726C25.3614 40.3358 25.168 40.3546 24.9924 40.4264C24.8166 40.4982 24.6664 40.6198 24.561 40.7758C24.4556 40.9318 24.3996 41.1152 24.4 41.3026V81.2946C24.4494 84.1326 23.5968 86.9146 21.9612 89.251C20.3258 91.5872 17.9896 93.3608 15.28 94.323C13.5486 94.9168 11.6984 95.0942 9.8832 94.8402C8.0682 94.5862 6.3412 93.9082 4.846 92.8628C3.3508 91.8176 2.1308 90.435 1.2878 88.8308C0.445 87.2264 0.0034 85.4468 0 83.64V11.7374C0.1206 9.1462 1.0666 6.6584 2.7038 4.6274C4.341 2.5964 6.586 1.1256 9.12 0.423801C11.2936 -0.146839 13.5816 -0.14112 15.7522 0.4404C17.9228 1.0218 19.8988 2.1586 21.48 3.7352L53.8 35.6262C53.8968 35.723 54.0138 35.7978 54.1432 35.845C54.2724 35.8922 54.4108 35.911 54.5482 35.8996C54.6856 35.8884 54.8188 35.8474 54.9384 35.7798C55.058 35.712 55.1608 35.6192 55.24 35.5078L78.2 4.1884C79.261 2.917 80.5912 1.8896 82.0976 1.178C83.6038 0.466401 85.2498 0.0880015 86.92 0.0690015H146.64C148.274 0.0718015 149.889 0.418201 151.377 1.0854C152.864 1.7528 154.19 2.7254 155.266 3.9382C156.341 5.151 157.141 6.5762 157.613 8.1184C158.084 9.6606 158.216 11.2842 158 12.8806C157.579 15.65 156.153 18.1752 153.987 19.9874C151.821 21.7996 149.061 22.7762 146.22 22.7358H112.78C112.612 22.7398 112.448 22.7882 112.305 22.8758C112.163 22.9634 112.047 23.0872 111.969 23.234C111.891 23.381 111.855 23.5458 111.864 23.7112C111.873 23.8766 111.927 24.0366 112.02 24.1746Z" fill="white"/>
</svg>
