<svg viewBox="0 0 354 741" fill="none" xmlns="http://www.w3.org/2000/svg">
<path d="M4.7927 363.242L7.25874 360.952C10.3149 358.114 12.0514 354.132 12.0514 349.961V22.332C12.0514 18.4944 13.5224 14.8028 16.1617 12.0169L23.1093 4.68332C25.9417 1.69353 29.879 0 33.9974 0H326.267C330.245 0 334.06 1.58018 336.873 4.39292L349.607 17.1275C352.42 19.9402 354 23.7551 354 27.7329V153.391C354 156.636 352.947 159.794 351 162.39L346.67 168.164C344.723 170.76 343.67 173.918 343.67 177.163V720.249C343.67 724.673 341.717 728.872 338.333 731.722L331.502 737.474C328.798 739.751 325.376 741 321.841 741H14.9984C6.71499 741 0 734.285 0 726.002V374.232C0 370.062 1.73654 366.08 4.7927 363.242Z" fill="black"/>
</svg>
