<svg viewBox="0 0 704 621" fill="none" xmlns="http://www.w3.org/2000/svg">
<path opacity="0.8" d="M5.43055 250.429L7.8966 248.139C11.1438 245.124 12.9888 240.892 12.9888 236.461V22.332C12.9888 18.7342 14.3679 15.2734 16.8422 12.6616L23.7898 5.328C26.4452 2.52508 30.1364 0.937397 33.9975 0.937397H676.267C679.996 0.937397 683.573 2.41882 686.21 5.05576L698.944 17.7903C701.581 20.4273 703.063 24.0037 703.063 27.7329V153.391C703.063 156.433 702.076 159.394 700.25 161.827L695.92 167.601C693.851 170.36 692.733 173.715 692.733 177.163V599.749C692.733 603.897 690.902 607.833 687.729 610.505L680.898 616.257C678.363 618.392 675.155 619.563 671.841 619.563H14.9984C7.2327 619.563 0.937397 613.267 0.937397 605.502V260.732C0.937397 256.823 2.5654 253.089 5.43055 250.429Z" stroke="url(#paint0_linear_1592_2795)" stroke-width="1.87479"/>
<defs>
<linearGradient id="paint0_linear_1592_2795" x1="499.704" y1="0" x2="499.704" y2="568.999" gradientUnits="userSpaceOnUse">
<stop stop-color="white" stop-opacity="0"/>
<stop offset="1" stop-color="white"/>
</linearGradient>
</defs>
</svg>
