<svg viewBox="0 0 354 515" fill="none" xmlns="http://www.w3.org/2000/svg">
<path opacity="0.8" d="M5.43055 363.929L7.89659 361.639C11.1438 358.624 12.9888 354.392 12.9888 349.961V22.332C12.9888 18.7342 14.3679 15.2734 16.8422 12.6616L23.7898 5.328C26.4452 2.52508 30.1364 0.937397 33.9974 0.937397H326.267C329.996 0.937397 333.573 2.41882 336.21 5.05576L348.944 17.7903C351.581 20.4273 353.063 24.0037 353.063 27.7329V153.391C353.063 156.433 352.076 159.394 350.25 161.827L345.92 167.601C343.851 170.36 342.733 173.715 342.733 177.163V494.249C342.733 498.397 340.902 502.333 337.729 505.005L330.898 510.757C328.363 512.892 325.155 514.063 321.841 514.063H14.9984C7.2327 514.063 0.937397 507.767 0.937397 500.002V374.232C0.937397 370.323 2.5654 366.589 5.43055 363.929Z" stroke="url(#paint0_linear_1592_3202)" stroke-width="1.87479"/>
<defs>
<linearGradient id="paint0_linear_1592_3202" x1="499.704" y1="0" x2="499.704" y2="568.999" gradientUnits="userSpaceOnUse">
<stop stop-color="white" stop-opacity="0"/>
<stop offset="1" stop-color="white"/>
</linearGradient>
</defs>
</svg>
