<svg viewBox="0 0 1000 478" fill="none" xmlns="http://www.w3.org/2000/svg">
<path d="M4.7927 330.242L7.25874 327.952C10.3149 325.114 12.0514 321.132 12.0514 316.961V22.332C12.0514 18.4944 13.5224 14.8028 16.1617 12.0169L23.1093 4.68332C25.9417 1.69353 29.879 0 33.9974 0H971.676C975.653 0 979.468 1.58018 982.281 4.39292L995.016 17.1275C997.828 19.9402 999.409 23.7551 999.409 27.7329V153.391C999.409 156.636 998.356 159.794 996.409 162.39L992.078 168.164C990.131 170.76 989.079 173.918 989.079 177.163V457.249C989.079 461.673 987.125 465.872 983.741 468.722L976.91 474.474C974.206 476.751 970.785 478 967.249 478H14.9984C6.71499 478 0 471.285 0 463.002V341.232C0 337.062 1.73654 333.08 4.7927 330.242Z" fill="black"/>
</svg>
