<svg viewBox="0 0 1000 478" fill="none" xmlns="http://www.w3.org/2000/svg">
<path opacity="0.8" d="M5.43055 330.929L7.89659 328.639C11.1438 325.624 12.9888 321.392 12.9888 316.961V22.332C12.9888 18.7342 14.3679 15.2734 16.8422 12.6616L23.7898 5.328C26.4452 2.52508 30.1364 0.937397 33.9974 0.937397H971.676C975.405 0.937397 978.981 2.41882 981.618 5.05576L994.353 17.7903C996.99 20.4273 998.471 24.0037 998.471 27.7329V153.391C998.471 156.433 997.484 159.394 995.659 161.827L991.328 167.601C989.26 170.36 988.141 173.715 988.141 177.163V457.249C988.141 461.397 986.31 465.333 983.138 468.005L976.307 473.757C973.771 475.892 970.564 477.063 967.249 477.063H14.9984C7.2327 477.063 0.937397 470.767 0.937397 463.002V341.232C0.937397 337.323 2.5654 333.589 5.43055 330.929Z" stroke="url(#paint0_linear_1592_2674)" stroke-width="1.87479"/>
<defs>
<linearGradient id="paint0_linear_1592_2674" x1="499.704" y1="0" x2="499.704" y2="569" gradientUnits="userSpaceOnUse">
<stop stop-color="white" stop-opacity="0"/>
<stop offset="1" stop-color="white"/>
</linearGradient>
</defs>
</svg>
