<svg viewBox="0 0 704 621" fill="none" xmlns="http://www.w3.org/2000/svg">
<path d="M4.7927 249.742L7.25874 247.452C10.3149 244.614 12.0514 240.632 12.0514 236.461V22.332C12.0514 18.4944 13.5224 14.8028 16.1617 12.0169L23.1093 4.68332C25.9417 1.69353 29.879 0 33.9975 0H676.267C680.245 0 684.06 1.58018 686.873 4.39292L699.607 17.1275C702.42 19.9402 704 23.7551 704 27.7329V153.391C704 156.636 702.947 159.794 701 162.39L696.67 168.164C694.723 170.76 693.67 173.918 693.67 177.163V599.749C693.67 604.173 691.717 608.372 688.333 611.222L681.502 616.974C678.798 619.251 675.376 620.5 671.841 620.5H14.9984C6.71499 620.5 0 613.785 0 605.502V260.732C0 256.562 1.73654 252.58 4.7927 249.742Z" fill="black"/>
</svg>
