<svg viewBox="0 0 354 337" fill="none" xmlns="http://www.w3.org/2000/svg">
<path d="M344.587 336.198H9.33061C6.37932 336.198 3.75087 334.332 2.77839 331.545L0.889679 326.134C0.509293 325.044 0.406805 323.876 0.591492 322.736L49.9733 18.0506C50.1767 16.7955 50.7211 15.6204 51.5468 14.6536L61.7276 2.73431C63.0461 1.19065 64.9744 0.301731 67.0045 0.301731H286.437C288.41 0.301731 290.29 1.14188 291.606 2.61201L302.358 14.6181C303.245 15.6087 303.828 16.8332 304.039 18.1461L353.315 324.64C353.556 326.137 353.3 327.672 352.586 329.009L350.709 332.526C349.503 334.786 347.149 336.198 344.587 336.198Z" fill="url(#paint0_linear_957_7386)"/>
<path d="M344.587 336.198H9.33061C6.37932 336.198 3.75087 334.332 2.77839 331.545L0.889679 326.134C0.509293 325.044 0.406805 323.876 0.591492 322.736L49.9733 18.0506C50.1767 16.7955 50.7211 15.6204 51.5468 14.6536L61.7276 2.73431C63.0461 1.19065 64.9744 0.301731 67.0045 0.301731H286.437C288.41 0.301731 290.29 1.14188 291.606 2.61201L302.358 14.6181C303.245 15.6087 303.828 16.8332 304.039 18.1461L353.315 324.64C353.556 326.137 353.3 327.672 352.586 329.009L350.709 332.526C349.503 334.786 347.149 336.198 344.587 336.198Z" fill="url(#paint1_linear_957_7386)"/>
<path d="M344.587 336.198H9.33061C6.37932 336.198 3.75087 334.332 2.77839 331.545L0.889679 326.134C0.509293 325.044 0.406805 323.876 0.591492 322.736L49.9733 18.0506C50.1767 16.7955 50.7211 15.6204 51.5468 14.6536L61.7276 2.73431C63.0461 1.19065 64.9744 0.301731 67.0045 0.301731H286.437C288.41 0.301731 290.29 1.14188 291.606 2.61201L302.358 14.6181C303.245 15.6087 303.828 16.8332 304.039 18.1461L353.315 324.64C353.556 326.137 353.3 327.672 352.586 329.009L350.709 332.526C349.503 334.786 347.149 336.198 344.587 336.198Z" stroke="url(#paint2_linear_957_7386)" stroke-width="0.603461"/>
<defs>
<linearGradient id="paint0_linear_957_7386" x1="87.9837" y1="0" x2="87.9837" y2="240" gradientUnits="userSpaceOnUse">
<stop stop-color="#1A0C36" stop-opacity="0"/>
<stop offset="1" stop-color="#1A0C36"/>
</linearGradient>
<linearGradient id="paint1_linear_957_7386" x1="87.9837" y1="240" x2="87.9837" y2="-1.36808e-05" gradientUnits="userSpaceOnUse">
<stop/>
<stop offset="1" stop-color="#1E135C"/>
</linearGradient>
<linearGradient id="paint2_linear_957_7386" x1="87.9837" y1="0" x2="87.9837" y2="240" gradientUnits="userSpaceOnUse">
<stop stop-color="white" stop-opacity="0"/>
<stop offset="1" stop-color="white"/>
</linearGradient>
</defs>
</svg>
