<svg viewBox="0 0 800 282" fill="none" xmlns="http://www.w3.org/2000/svg">
<path d="M787.896 281.698H12.0032C9.88261 281.698 7.87838 280.729 6.56211 279.066L2.43662 273.855C0.600984 271.536 0.436427 268.309 2.02669 265.816L160.205 17.808C160.864 16.775 161.784 15.9348 162.873 15.3729L190.576 1.07468C191.56 0.566763 192.651 0.301731 193.759 0.301731H610.314C611.377 0.301731 612.426 0.545881 613.379 1.01535L613.513 0.744643L613.379 1.01535L642.489 15.3464C643.665 15.9251 644.652 16.8247 645.338 17.9412L798.449 267.294C800.26 270.242 799.622 274.073 796.955 276.276L792.316 280.109C791.072 281.136 789.509 281.698 787.896 281.698Z" fill="url(#paint0_linear_980_1529)"/>
<path d="M787.896 281.698H12.0032C9.88261 281.698 7.87838 280.729 6.56211 279.066L2.43662 273.855C0.600984 271.536 0.436427 268.309 2.02669 265.816L160.205 17.808C160.864 16.775 161.784 15.9348 162.873 15.3729L190.576 1.07468C191.56 0.566763 192.651 0.301731 193.759 0.301731H610.314C611.377 0.301731 612.426 0.545881 613.379 1.01535L613.513 0.744643L613.379 1.01535L642.489 15.3464C643.665 15.9251 644.652 16.8247 645.338 17.9412L798.449 267.294C800.26 270.242 799.622 274.073 796.955 276.276L792.316 280.109C791.072 281.136 789.509 281.698 787.896 281.698Z" fill="url(#paint1_linear_980_1529)"/>
<path d="M787.896 281.698H12.0032C9.88261 281.698 7.87838 280.729 6.56211 279.066L2.43662 273.855C0.600984 271.536 0.436427 268.309 2.02669 265.816L160.205 17.808C160.864 16.775 161.784 15.9348 162.873 15.3729L190.576 1.07468C191.56 0.566763 192.651 0.301731 193.759 0.301731H610.314C611.377 0.301731 612.426 0.545881 613.379 1.01535L613.513 0.744643L613.379 1.01535L642.489 15.3464C643.665 15.9251 644.652 16.8247 645.338 17.9412L798.449 267.294C800.26 270.242 799.622 274.073 796.955 276.276L792.316 280.109C791.072 281.136 789.509 281.698 787.896 281.698Z" stroke="url(#paint2_linear_980_1529)" stroke-width="0.603461"/>
<defs>
<linearGradient id="paint0_linear_980_1529" x1="198.579" y1="0" x2="198.579" y2="240" gradientUnits="userSpaceOnUse">
<stop stop-color="#1A0C36" stop-opacity="0"/>
<stop offset="1" stop-color="#1A0C36"/>
</linearGradient>
<linearGradient id="paint1_linear_980_1529" x1="198.579" y1="240" x2="198.579" y2="-1.36808e-05" gradientUnits="userSpaceOnUse">
<stop/>
<stop offset="1" stop-color="#1E135C"/>
</linearGradient>
<linearGradient id="paint2_linear_980_1529" x1="198.579" y1="0" x2="198.579" y2="240" gradientUnits="userSpaceOnUse">
<stop stop-color="white" stop-opacity="0"/>
<stop offset="1" stop-color="white"/>
</linearGradient>
</defs>
</svg>
