<svg viewBox="0 0 702 288" fill="none" xmlns="http://www.w3.org/2000/svg">
<path d="M688 287.198H11.1175C8.84317 287.198 6.71316 286.084 5.41636 284.215L1.80077 279.006C0.30147 276.846 0.151838 274.024 1.41428 271.717L140.334 17.8959C140.935 16.7977 141.822 15.8825 142.901 15.2473L166.658 1.26112C167.725 0.632979 168.941 0.301731 170.179 0.301731H534.531C535.721 0.301731 536.891 0.607784 537.929 1.19049L562.92 15.224C564.078 15.8742 565.025 16.8429 565.648 18.0152L700.216 270.91C701.649 273.604 701.154 276.919 698.996 279.077L692.908 285.166C691.606 286.467 689.841 287.198 688 287.198Z" fill="url(#paint0_linear_957_5181)"/>
<path d="M688 287.198H11.1175C8.84317 287.198 6.71316 286.084 5.41636 284.215L1.80077 279.006C0.30147 276.846 0.151838 274.024 1.41428 271.717L140.334 17.8959C140.935 16.7977 141.822 15.8825 142.901 15.2473L166.658 1.26112C167.725 0.632979 168.941 0.301731 170.179 0.301731H534.531C535.721 0.301731 536.891 0.607784 537.929 1.19049L562.92 15.224C564.078 15.8742 565.025 16.8429 565.648 18.0152L700.216 270.91C701.649 273.604 701.154 276.919 698.996 279.077L692.908 285.166C691.606 286.467 689.841 287.198 688 287.198Z" fill="url(#paint1_linear_957_5181)"/>
<path d="M688 287.198H11.1175C8.84317 287.198 6.71316 286.084 5.41636 284.215L1.80077 279.006C0.30147 276.846 0.151838 274.024 1.41428 271.717L140.334 17.8959C140.935 16.7977 141.822 15.8825 142.901 15.2473L166.658 1.26112C167.725 0.632979 168.941 0.301731 170.179 0.301731H534.531C535.721 0.301731 536.891 0.607784 537.929 1.19049L562.92 15.224C564.078 15.8742 565.025 16.8429 565.648 18.0152L700.216 270.91C701.649 273.604 701.154 276.919 698.996 279.077L692.908 285.166C691.606 286.467 689.841 287.198 688 287.198Z" stroke="url(#paint2_linear_957_5181)" stroke-width="0.603461"/>
<defs>
<linearGradient id="paint0_linear_957_5181" x1="173.973" y1="0" x2="173.973" y2="240" gradientUnits="userSpaceOnUse">
<stop stop-color="#1A0C36" stop-opacity="0"/>
<stop offset="1" stop-color="#1A0C36"/>
</linearGradient>
<linearGradient id="paint1_linear_957_5181" x1="173.973" y1="240" x2="173.973" y2="-1.36808e-05" gradientUnits="userSpaceOnUse">
<stop/>
<stop offset="1" stop-color="#1E135C"/>
</linearGradient>
<linearGradient id="paint2_linear_957_5181" x1="173.973" y1="0" x2="173.973" y2="240" gradientUnits="userSpaceOnUse">
<stop stop-color="white" stop-opacity="0"/>
<stop offset="1" stop-color="white"/>
</linearGradient>
</defs>
</svg>
