<svg viewBox="0 0 96 96" fill="none" xmlns="http://www.w3.org/2000/svg">
<path d="M86.7097 49.5485C86.7097 70.072 70.0719 86.7098 49.5484 86.7098C29.0248 86.7098 12.3871 70.072 12.3871 49.5485C12.3871 29.0249 29.0248 12.3872 49.5484 12.3872C70.0719 12.3872 86.7097 29.0249 86.7097 49.5485Z" fill="#1E1A6D"/>
<path d="M74.0386 76.8312C77.8436 72.418 79.9253 66.7753 79.899 60.945C79.899 47.8788 69.7573 37.2903 57.2461 37.2903C52.752 37.2906 48.3673 38.6746 44.6855 41.2545C44.6855 41.2545 50.6759 32.0091 69.4678 34.9625C88.2596 37.9162 91.6487 52.707 90.8965 64.1954C88.2398 71.1641 83.9025 77.3663 78.271 82.2493L74.0386 76.8312Z" fill="url(#paint0_radial_1701_2015)"/>
<path d="M78.2124 82.2603L78.1963 82.2962C77.3496 83.0298 76.4773 83.7436 75.5622 84.4249C69.3144 89.066 61.9804 92.0219 54.2638 93.0086C50.9314 93.4344 47.576 93.487 44.2578 93.1742C39.8926 92.7627 35.0654 89.9174 30.9677 88.2581C23.7558 85.3378 18.7981 81.9515 13.9355 75.871C9.07282 69.7905 5.91479 63.4272 4.64514 55.742L20.6949 58.154C21.5596 59.9917 22.7048 64.5541 23.9143 66.1852C31.6855 76.6759 44.4641 80.2034 56.1454 76.6464C57.9199 76.1026 59.5562 75.1823 60.9432 73.9476C62.3303 72.7132 63.4352 71.1936 64.1825 69.4929C64.93 67.7921 65.3026 65.9499 65.2744 64.0921C65.2465 62.234 64.8189 60.4039 64.0205 58.7263C63.2225 57.0491 62.0723 55.5636 60.6491 54.3713C59.2255 53.1794 57.5622 52.3086 55.7723 51.8184C53.982 51.3281 52.1075 51.2303 50.2764 51.5313C48.4453 51.8323 46.7006 52.525 45.1609 53.5622C45.1609 53.5622 53.987 46.3315 65.7953 50.413C65.7953 50.413 77.1186 54.035 80.8561 66.1035C84.5936 78.1722 78.2124 82.2603 78.2124 82.2603Z" fill="url(#paint1_radial_1701_2015)"/>
<path d="M90.9064 64.0491C93.6164 56.9243 94.4906 49.231 93.4482 41.6786C92.4059 34.1265 89.4803 26.9589 84.942 20.8374C84.7986 20.645 84.6457 20.4657 84.5026 20.2767L76.6108 16.231L49.1198 11.3181L47.4918 17.2644C52.4392 17.1008 57.3526 18.1413 61.8101 20.2967C66.2676 22.452 70.1364 25.658 73.0848 29.6395C74.6874 31.7974 75.9908 34.163 76.9592 36.6714L78.7692 37.5645L88.9301 47.6544L91.3623 58.4582L90.9684 63.2634L90.9064 64.0491Z" fill="url(#paint2_linear_1701_2015)"/>
<path d="M90.8953 64.1944C92.339 59.6117 92.6948 54.7551 91.9349 50.0105C91.1749 45.2662 89.3199 40.7645 86.5177 36.8641C83.7151 32.9634 80.0426 29.7711 75.792 27.5412C71.5414 25.3113 66.8296 24.1051 62.0318 24.0187C57.2336 23.9322 52.4819 24.9678 48.1536 27.0431C43.8255 29.1184 40.0407 32.1762 37.1 35.9734C34.1593 39.7704 32.1439 44.2022 31.2139 48.9164C30.2839 53.6303 30.465 58.4966 31.7428 63.1281C32.452 55.6785 35.9427 48.7712 41.5175 43.7869C47.092 38.803 54.3397 36.1088 61.8119 36.2435C69.2841 36.3782 76.4305 39.3316 81.8223 44.5134C87.2141 49.6952 90.4543 56.724 90.8953 64.1944Z" fill="url(#paint3_linear_1701_2015)"/>
<path d="M78.197 82.3047C80.3179 80.1711 81.9784 77.6237 83.0753 74.8205C84.1719 72.0173 84.6816 69.0183 84.5729 66.0095C84.4639 63.001 83.7383 60.047 82.4417 57.3308C81.1448 54.6143 79.3044 52.1942 77.0347 50.2197C74.7648 48.2455 72.114 46.7597 69.2463 45.8539C66.379 44.9484 63.3563 44.6427 60.366 44.9558C57.3758 45.2686 54.4815 46.1939 51.8632 47.6735C49.2449 49.1535 46.9582 51.1562 45.1451 53.5577C49.2886 50.8363 54.2062 49.544 59.1502 49.8775C64.0942 50.2113 68.7942 52.1527 72.5354 55.4065C76.2766 58.6603 78.8541 63.0487 79.876 67.9038C80.898 72.7592 80.3083 77.816 78.197 82.3047Z" fill="url(#paint4_radial_1701_2015)"/>
<path d="M36.6952 24.096C44.5703 18.2493 54.3128 15.4959 64.0787 16.3568C73.8447 17.2176 82.957 21.6331 89.6909 28.7676C86.3312 21.507 81.1178 15.2629 74.5765 10.666C68.0355 6.06907 60.3985 3.28215 52.4373 2.5868C44.4762 1.89145 36.4729 3.31229 29.2356 6.70576C21.9984 10.0992 15.7838 15.3452 11.2195 21.9136C6.65526 28.4821 3.903 36.1403 3.24082 44.1151C2.57865 52.0896 4.02997 60.0978 7.44822 67.331C10.8664 74.5638 16.1305 80.7654 22.7086 85.3093C29.2867 89.8529 36.9457 92.5777 44.9125 93.2085C38.4186 90.4487 32.7682 86.02 28.5328 80.3709C24.2975 74.7217 21.6278 68.0522 20.7938 61.0377C19.9598 54.0235 20.9911 46.9127 23.7834 40.4259C26.5757 33.9388 31.03 28.3054 36.6952 24.096Z" fill="url(#paint5_linear_1701_2015)"/>
<defs>
<radialGradient id="paint0_radial_1701_2015" cx="0" cy="0" r="1" gradientUnits="userSpaceOnUse" gradientTransform="translate(60.3487 48.5276) scale(32.5926 32.6363)">
<stop offset="0.31" stop-color="#1C1564"/>
<stop offset="0.32" stop-color="#1C1666"/>
<stop offset="0.63" stop-color="#262E97"/>
<stop offset="0.87" stop-color="#2C3CB6"/>
<stop offset="1" stop-color="#2E42C1"/>
</radialGradient>
<radialGradient id="paint1_radial_1701_2015" cx="0" cy="0" r="1" gradientUnits="userSpaceOnUse" gradientTransform="translate(41.8464 60.2843) scale(37.3428 32.9054)">
<stop offset="0.4" stop-color="#1C1564"/>
<stop offset="0.41" stop-color="#1C1666"/>
<stop offset="0.68" stop-color="#262E97"/>
<stop offset="0.89" stop-color="#2C3CB6"/>
<stop offset="1" stop-color="#2E42C1"/>
</radialGradient>
<linearGradient id="paint2_linear_1701_2015" x1="70.6836" y1="11.3181" x2="95.7104" y2="51.3641" gradientUnits="userSpaceOnUse">
<stop stop-color="#1B1461"/>
<stop offset="1" stop-color="#2E42C1"/>
</linearGradient>
<linearGradient id="paint3_linear_1701_2015" x1="25.2511" y1="38.5998" x2="97.881" y2="54.2989" gradientUnits="userSpaceOnUse">
<stop stop-color="#46FFD7"/>
<stop offset="0.28" stop-color="#3ECFE7"/>
<stop offset="0.3" stop-color="#3DC5E5"/>
<stop offset="0.39" stop-color="#399CDC"/>
<stop offset="0.47" stop-color="#367ED6"/>
<stop offset="0.54" stop-color="#346CD2"/>
<stop offset="0.59" stop-color="#3365D1"/>
<stop offset="0.6" stop-color="#3465D1"/>
<stop offset="0.69" stop-color="#6469CB"/>
<stop offset="0.78" stop-color="#8A6CC6"/>
<stop offset="0.87" stop-color="#A66EC2"/>
<stop offset="0.94" stop-color="#B670C0"/>
<stop offset="1" stop-color="#BC70BF"/>
</linearGradient>
<radialGradient id="paint4_radial_1701_2015" cx="0" cy="0" r="1" gradientUnits="userSpaceOnUse" gradientTransform="translate(48.0669 50.9428) rotate(31.7014) scale(46.4117 48.8566)">
<stop stop-color="#58FAD7"/>
<stop offset="0.498401" stop-color="#3468D2"/>
<stop offset="1" stop-color="#B370C1"/>
</radialGradient>
<linearGradient id="paint5_linear_1701_2015" x1="17.3856" y1="66.0201" x2="80.1135" y2="11.3443" gradientUnits="userSpaceOnUse">
<stop stop-color="#46FFD7"/>
<stop offset="0.31" stop-color="#3ECFE7"/>
<stop offset="0.72" stop-color="#3365D1"/>
<stop offset="0.77" stop-color="#3765D0"/>
<stop offset="0.82" stop-color="#4566CF"/>
<stop offset="0.87" stop-color="#5A68CC"/>
<stop offset="0.92" stop-color="#796BC8"/>
<stop offset="0.97" stop-color="#A06EC3"/>
<stop offset="1" stop-color="#BC70BF"/>
</linearGradient>
</defs>
</svg>
