<svg class="sound-icon" viewBox="0 0 59 59" fill="none" xmlns="http://www.w3.org/2000/svg">
    <circle cx="29.4899" cy="29.4891" r="20.3453" fill="url(#paint0_linear_601_11986)" fill-opacity="0.3"/>
    <circle cx="29.49" cy="29.4892" r="15.7733" fill="url(#paint1_linear_601_11986)"/>
    <path d="M6.40315 35.6347C4.77613 29.509 5.64915 22.9879 8.83017 17.5059C12.0112 12.024 17.2396 8.03016 23.3653 6.40314C29.491 4.77612 36.0121 5.64914 41.4941 8.83016C46.976 12.0112 50.9698 17.2396 52.5968 23.3653" stroke="url(#paint2_linear_601_11986)" stroke-width="0.438941"/>
    <path class="sound-icon-path" fill-rule="evenodd" clip-rule="evenodd" d="M30.9776 25.3041C31.066 25.6398 31.1019 25.9761 31.1364 26.3004L31.1688 26.5953C31.2924 27.5794 31.2924 32.4142 31.1688 33.4055L31.1364 33.7111L31.1359 33.7168C31.1051 34.0235 31.0733 34.3409 30.9826 34.6795C30.7419 35.4804 30.1 36 29.3712 36C29.3482 36 29.3252 36 29.2994 35.9993C28.8969 35.9993 28.4592 35.7588 28.2112 35.5491L25.7941 33.5887H24.5529C23.5948 33.5887 22.8934 32.9137 22.7661 31.8695C22.6195 30.8252 22.6483 29.0338 22.7661 28.0847C22.9049 27.0963 23.6394 26.4113 24.5529 26.4113H25.7941L28.1652 24.4795C28.4513 24.2376 28.9558 23.9986 29.3547 24C30.0698 24 30.7368 24.501 30.9776 25.3041ZM35.813 24.6235C35.7109 24.4482 35.4407 24.5183 35.4407 24.7216C35.6347 28.1414 35.6247 31.6664 35.4407 35.2794C35.4407 35.4819 35.7109 35.5528 35.813 35.3767C36.6733 33.9016 37.3331 32.0421 37.3331 30.0001C37.3331 27.9581 36.6733 26.0994 35.813 24.6235ZM32.5615 25.8831C32.7125 28.5513 32.7045 31.2997 32.5615 34.1176C32.5615 34.2758 32.7721 34.3309 32.8519 34.1935C33.5225 33.0426 34.0378 31.5932 34.0378 30C34.0378 28.4075 33.5225 26.9574 32.8519 25.8072C32.7721 25.6698 32.5615 25.7242 32.5615 25.8831Z" fill="#131313"/>
    <path class="sound-icon-path muted" fill-rule="evenodd" clip-rule="evenodd" d="M34.4213 23.8223C34.6284 23.6148 34.9639 23.6148 35.1781 23.8223C35.3851 24.0299 35.3851 24.3735 35.1781 24.5811L23.6129 36.1766C23.5129 36.2768 23.3702 36.3333 23.2345 36.3333C23.0989 36.3333 22.9632 36.2768 22.8561 36.1766C22.6491 35.9618 22.6491 35.6254 22.8561 35.4178L24.6837 33.5855H24.5338C23.5843 33.5855 22.8918 32.9126 22.7633 31.8676C22.6206 30.8226 22.6491 29.0332 22.7633 28.0812C22.899 27.0934 23.6272 26.4134 24.5338 26.4134H25.7689L28.1247 24.4808C28.4103 24.2375 28.9172 24.0084 29.3098 24.0013C30.0237 24.0013 30.6805 24.5023 30.9161 25.304C31.0089 25.6404 31.0446 25.9768 31.0731 26.2989L31.1302 26.757C31.1322 26.772 31.1342 26.7866 31.1362 26.8012C31.1484 26.891 31.1598 26.9754 31.1659 27.0863L34.4213 23.8223ZM30.4769 30.9749C30.574 30.8797 30.7889 30.8125 30.886 30.8368C31.1487 30.9034 31.1994 31.2806 31.1958 31.5769C31.1837 32.4373 31.1544 33.0356 31.1087 33.4057L31.0766 33.7106L31.0761 33.7163C31.0455 34.023 31.014 34.3404 30.9239 34.6791C30.6854 35.4793 30.0479 35.9989 29.324 35.9989C29.2997 35.9989 29.2762 35.9989 29.2519 35.9982C28.8521 35.9982 28.4173 35.7577 28.1711 35.548L27.2937 34.8673C26.961 34.6189 27.0588 34.2224 27.2458 33.9926C27.3856 33.8215 29.0673 32.2738 29.9484 31.463C30.2462 31.1889 30.4526 30.999 30.4769 30.9749Z" fill="#131313"/>
    <defs>
        <linearGradient id="paint0_linear_601_11986" x1="16.1201" y1="29.4891" x2="49.1349" y2="21.1997" gradientUnits="userSpaceOnUse">
            <stop stop-color="#EFDDA9"/>
            <stop offset="1" stop-color="#F0A8A8"/>
        </linearGradient>
        <linearGradient id="paint1_linear_601_11986" x1="19.1247" y1="29.4892" x2="44.7204" y2="23.0626" gradientUnits="userSpaceOnUse">
            <stop stop-color="#EFDDA9"/>
            <stop offset="1" stop-color="#F0A8A8"/>
        </linearGradient>
        <linearGradient id="paint2_linear_601_11986" x1="8.99848" y1="-12.7293" x2="29.4092" y2="30.5064" gradientUnits="userSpaceOnUse">
            <stop stop-color="#EFDDA9"/>
            <stop offset="1" stop-color="#F0AEA8" stop-opacity="0"/>
        </linearGradient>
    </defs>
</svg>
