<svg viewBox="0 0 73 64" fill="none" xmlns="http://www.w3.org/2000/svg">
<path fill-rule="evenodd" clip-rule="evenodd" d="M25.8415 12.2235C29.2667 14.4638 32.9685 15.0604 36.3559 15.0604C39.7433 15.0604 43.4452 14.4638 46.8661 12.2235C52.53 7.85978 59.221 0.221108 59.221 0.221108C59.221 0.221108 46.6062 0 45.73 0C45.2437 0 44.9586 0.538169 44.5855 1.25156C44.2692 1.911 43.8598 2.5221 43.3697 3.06631C42.112 4.37628 39.6595 5.46513 36.3559 5.46513C33.0524 5.46513 30.3776 4.37628 29.2918 3.06631C28.9026 2.57597 28.5575 2.05247 28.2605 1.50187C27.791 0.667499 27.422 0.016691 26.8687 0.016691C25.9925 0.016691 13.4909 0.237799 13.4909 0.237799C13.4909 0.237799 20.2909 7.85978 25.8415 12.2235ZM69.5593 5.88653L72.8461 0.216985L66.2683 0.216985L57.4644 9.05713L69.5593 5.88653ZM41.5923 24.0712C43.2818 21.1551 45.6547 18.2598 49.3146 16.4326C55.9469 13.7334 65.9372 11.7893 65.9372 11.7893C65.9372 11.7893 59.8248 22.7696 59.3846 23.5247C59.1429 23.9436 58.5366 23.9213 57.747 23.8924L57.7328 23.8918C57.0005 23.8337 56.2636 23.8801 55.5444 24.0295C53.7753 24.4467 51.6162 26.0362 49.9644 28.8814C48.3126 31.7266 47.9269 34.5759 48.5223 36.1696C48.7523 36.7491 49.0329 37.3075 49.3607 37.8383C49.8386 38.6477 50.2243 39.3068 49.956 39.7741C49.5158 40.5333 43.0764 51.1966 43.0764 51.1966C43.0764 51.1966 39.8273 41.5179 38.8044 34.5467C38.5654 30.4792 39.9028 26.9874 41.5923 24.0712ZM36.2973 63.0744L33.0063 57.4048L36.2973 45.3982L39.5883 57.4048L36.2973 63.0744ZM23.5021 16.4326C27.1621 18.2598 29.5517 21.1509 31.2286 24.0712C32.9223 26.9873 34.2555 30.4792 34.0333 34.5384C33.0104 41.5095 29.7613 51.1882 29.7613 51.1882C29.7613 51.1882 23.3009 40.525 22.8817 39.7657C22.6134 39.2985 22.9991 38.6393 23.477 37.83C23.8032 37.2982 24.0837 36.74 24.3155 36.1612C24.9108 34.5676 24.5251 31.7224 22.8733 28.873C21.2215 26.0236 19.0415 24.4425 17.2723 24.0253C16.5546 23.8759 15.819 23.8295 15.0881 23.8876C14.2748 23.9377 13.6795 23.9377 13.4363 23.5205C12.9961 22.7654 6.87948 11.7851 6.87948 11.7851C6.87948 11.7851 16.874 13.7334 23.5021 16.4326ZM0 0.216985L6.58198 0.216985L15.3859 9.05714L3.29099 5.88653L0 0.216985Z" fill="white"/>
</svg>
