<svg class="sm-icon" viewBox="0 0 40 40" fill="none" xmlns="http://www.w3.org/2000/svg">
    <g>
        <circle class="sm-icon-bg" cx="20" cy="20" r="20" fill="#2D303D" fill-opacity="0.2"/>
        <circle class="sm-icon-bg" cx="20" cy="20" r="20" fill="url(#paint0_radial_1242_1788)"/>
        <circle class="sm-icon-bg" cx="20" cy="20" r="20" fill="url(#paint1_radial_1242_1788)"/>
        <circle class="sm-icon-bg hover" cx="20" cy="20" r="20" fill="url(#paint0_linear_980_1273)"/>
    </g>
    <path class="sm-icon-path" fill-rule="evenodd" clip-rule="evenodd" d="M13 15.546L13.9547 13H27V21.9116L23.1813 25.7289H20.3178L18.4094 27.6394H16.499V25.7289H13V15.546ZM25.7283 14.2722H15.2275V23.5018H18.0929V25.4096L20.0008 23.5018H23.5004L25.7283 21.2738V14.2722Z" fill="#EFDAA9"/>
    <path class="sm-icon-path" fill-rule="evenodd" clip-rule="evenodd" d="M23.4992 20.6381H22.2266V16.8196H23.4992V20.6381ZM19.9994 20.6381H18.7266V16.8196H19.9994V20.6381Z" fill="#EFDAA9"/>       
    <defs>
        <radialGradient id="paint0_radial_1242_1788" cx="0" cy="0" r="1" gradientUnits="userSpaceOnUse" gradientTransform="translate(20 18.5) rotate(90) scale(23)">
            <stop offset="0.599181" stop-color="white" stop-opacity="0"/>
            <stop offset="0.899181" stop-color="white" stop-opacity="0.1"/>
            <stop offset="1" stop-color="white" stop-opacity="0.6"/>
        </radialGradient>
        <radialGradient id="paint1_radial_1242_1788" cx="0" cy="0" r="1" gradientUnits="userSpaceOnUse" gradientTransform="translate(20 18) rotate(90) scale(24 23.7067)">
            <stop offset="0.539246" stop-color="#EFDDA9" stop-opacity="0"/>
            <stop offset="0.644881" stop-color="#EFDDA9" stop-opacity="0.0479951"/>
            <stop offset="0.7295" stop-color="#EFDDA9" stop-opacity="0.1"/>
            <stop offset="1" stop-color="#EFDDA9" stop-opacity="0.6"/>
        </radialGradient>
        <linearGradient id="paint0_linear_980_1273" x1="6.66667" y1="14.2222" x2="39.0473" y2="8.08953" gradientUnits="userSpaceOnUse">
            <stop stop-color="#EFDDA9"/>
            <stop offset="1" stop-color="#F0A8A8"/>
        </linearGradient>
    </defs>
</svg>