<svg viewBox="0 0 515 293" fill="none" xmlns="http://www.w3.org/2000/svg">
<path opacity="0.8" d="M0.482702 285.277V216.136C0.482702 214.123 1.32102 212.201 2.7964 210.831L2.46794 210.477L2.7964 210.831L4.06626 209.651C5.73836 208.099 6.68845 205.92 6.68845 203.638V11.4996C6.68845 9.64698 7.39858 7.86485 8.6727 6.51995L12.2503 2.7436C13.6177 1.30026 15.5184 0.482702 17.5066 0.482702H500.353C502.273 0.482702 504.115 1.24554 505.473 2.6034L512.031 9.16093C513.388 10.5188 514.151 12.3605 514.151 14.2808V78.9869C514.151 80.5535 513.643 82.0779 512.703 83.3312L510.473 86.3044C509.408 87.7248 508.832 89.4524 508.832 91.228V282.315C508.832 284.45 507.889 286.477 506.255 287.853L502.738 290.815C501.432 291.914 499.781 292.517 498.074 292.517H7.72323C3.7244 292.517 0.482702 289.276 0.482702 285.277Z" stroke="url(#paint0_linear_980_870)" stroke-width="0.965404"/>
<defs>
<linearGradient id="paint0_linear_980_870" x1="257.317" y1="0" x2="257.317" y2="293" gradientUnits="userSpaceOnUse">
<stop stop-color="white" stop-opacity="0"/>
<stop offset="1" stop-color="white"/>
</linearGradient>
</defs>
</svg>
