<svg viewBox="0 0 889 533" fill="none" xmlns="http://www.w3.org/2000/svg">
<path d="M2.66443 384.619L8.73014 378.695C10.3113 377.151 11.2028 375.035 11.2028 372.825V18.2664C11.2028 16.4766 11.8657 14.7502 13.0636 13.4204L22.5609 2.8772C23.9339 1.35295 25.8891 0.482702 27.9406 0.482702H866.543C868.527 0.482702 870.424 1.29649 871.791 2.73399L886.524 18.2291C887.804 19.575 888.517 21.3611 888.517 23.2183V145.704C888.517 147.212 888.047 148.681 887.172 149.908L880.854 158.768C879.862 160.159 879.329 161.825 879.329 163.533V515.945C879.329 518.018 878.44 519.991 876.889 521.365L867.135 530.004C865.811 531.177 864.103 531.824 862.334 531.824H7.72323C3.7244 531.824 0.482702 528.582 0.482702 524.583V389.799C0.482702 387.849 1.26929 385.982 2.66443 384.619Z" stroke="url(#paint0_linear_313_7485)" stroke-width="0.965404"/>
<defs>
<linearGradient id="paint0_linear_313_7485" x1="444.5" y1="0" x2="444.5" y2="532.307" gradientUnits="userSpaceOnUse">
<stop stop-color="white" stop-opacity="0"/>
<stop offset="1" stop-color="white"/>
</linearGradient>
</defs>
</svg>
