<svg viewBox="0 0 889 533" fill="none" xmlns="http://www.w3.org/2000/svg">
<path d="M2.32718 384.274L8.39289 378.35C9.88104 376.897 10.7201 374.905 10.7201 372.825V18.2664C10.7201 16.3573 11.4272 14.5158 12.7049 13.0973L22.2023 2.55413C23.6668 0.928265 25.7524 0 27.9406 0H866.543C868.659 0 870.682 0.868043 872.14 2.40137L886.874 17.8965C888.239 19.3321 889 21.2373 889 23.2183V145.704C889 147.312 888.498 148.88 887.565 150.189L881.247 159.049C880.313 160.357 879.811 161.925 879.811 163.533V515.945C879.811 518.156 878.864 520.261 877.209 521.727L867.455 530.365C866.043 531.616 864.221 532.307 862.334 532.307H7.72323C3.45781 532.307 0 528.849 0 524.583V389.799C0 387.719 0.83903 385.727 2.32718 384.274Z" fill="black"/>
</svg>
