<svg viewBox="0 0 515 293" fill="none" xmlns="http://www.w3.org/2000/svg">
<path d="M2.46794 210.477L3.7378 209.298C5.31154 207.836 6.20575 205.786 6.20575 203.638V11.4996C6.20575 9.52347 6.96322 7.62254 8.32228 6.18797L11.8999 2.41162C13.3584 0.872062 15.3858 0 17.5066 0H500.353C502.401 0 504.366 0.813696 505.814 2.26208L512.372 8.81961C513.82 10.268 514.634 12.2324 514.634 14.2808V78.9869C514.634 80.6579 514.092 82.2839 513.089 83.6208L510.859 86.594C509.857 87.9309 509.315 89.5569 509.315 91.228V282.315C509.315 284.593 508.309 286.755 506.566 288.222L503.049 291.184C501.656 292.357 499.894 293 498.074 293H7.72323C3.45781 293 0 289.542 0 285.277V216.136C0 213.989 0.894208 211.938 2.46794 210.477Z" fill="black"/>
</svg>
