<svg class="watch-button-icon" viewBox="0 0 156 156" fill="none" xmlns="http://www.w3.org/2000/svg">
    <circle cx="77.6453" cy="77.6446" r="46.3508" transform="rotate(3.61711 77.6453 77.6446)" fill="url(#paint0_linear_1093_8927)" fill-opacity="0.3"/>
    <circle cx="77.6456" cy="77.6446" r="35.9349" transform="rotate(3.6171 77.6456 77.6446)" fill="url(#paint1_linear_1093_8927)"/>
    <path d="M117.247 40.3126C112.341 35.1153 106.459 30.9352 99.9379 28.011C93.4166 25.0868 86.3831 23.4756 79.2391 23.2696C72.0952 23.0636 64.9805 24.2667 58.3015 26.8102C51.6225 29.3537 45.5098 33.1879 40.3126 38.0938" stroke="url(#paint2_linear_1093_8927)" stroke-opacity="0.5" stroke-width="1.04159" stroke-linecap="round"/>
    <path class="watch-button-icon-play" d="M84.9204 77.2129C85.7537 77.694 85.7537 78.8968 84.9204 79.3779L74.4204 85.4401C73.5871 85.9212 72.5454 85.3198 72.5454 84.3576V72.2332C72.5454 71.271 73.5871 70.6696 74.4204 71.1507L84.9204 77.2129Z" stroke="url(#paint3_linear_1093_8927)" stroke-width="1.5" stroke-linecap="round"/>

    <path d="M42.5238 133.252L43.6248 122.07L45.6918 123.193L44.5651 133.013L43.9529 132.699L51.4287 126.308L53.58 127.476L52.291 137.226L51.694 136.884L59.3168 130.591L61.3416 131.69L52.6055 138.726L50.3135 137.482L51.5595 127.944L52.15 128.265L44.8157 134.496L42.5238 133.252Z" fill="white"/>
    <path d="M61.9215 139.335L62.2491 137.59L68.9796 138.853L68.652 140.598L61.9215 139.335ZM58.9736 141.077L65.6635 131.8L67.928 132.225L70.8463 143.305L68.5661 142.878L66.1036 132.925L67.1101 133.113L61.238 141.502L58.9736 141.077Z" fill="white"/>
    <path d="M72.5684 133.094L83.471 132.643L83.5445 134.417L72.6418 134.868L72.5684 133.094ZM77.0288 134.463L79.1549 134.375L79.5187 143.167L77.3925 143.255L77.0288 134.463Z" fill="white"/>
    <path d="M97.6862 135.599C97.8282 136.425 97.7463 137.188 97.4406 137.889C97.1348 138.59 96.6212 139.207 95.8996 139.741C95.178 140.275 94.2594 140.706 93.1437 141.033C92.2122 141.306 91.326 141.449 90.4851 141.462C89.6544 141.473 88.8945 141.345 88.2055 141.08C87.5267 140.813 86.9407 140.406 86.4476 139.862C85.9514 139.307 85.5773 138.6 85.3251 137.74C85.073 136.88 85.0059 136.083 85.1239 135.348C85.2419 134.613 85.5142 133.95 85.9409 133.358C86.3748 132.752 86.944 132.23 87.6487 131.79C88.3606 131.336 89.1822 130.973 90.1137 130.7C91.2294 130.373 92.2365 130.244 93.1352 130.314C94.0441 130.381 94.818 130.632 95.4569 131.067C96.0929 131.492 96.5703 132.097 96.8893 132.882L94.8627 133.476C94.6035 133.085 94.2703 132.783 93.8629 132.569C93.4628 132.341 92.9931 132.218 92.4538 132.198C91.9144 132.178 91.307 132.268 90.6314 132.466C89.7921 132.712 89.0942 133.061 88.5376 133.513C87.978 133.955 87.5993 134.483 87.4013 135.097C87.2004 135.701 87.2095 136.376 87.4286 137.123C87.6447 137.86 88.0003 138.428 88.4954 138.828C88.9905 139.227 89.5943 139.467 90.307 139.547C91.0166 139.617 91.7911 139.529 92.6304 139.283C93.306 139.085 93.8603 138.833 94.2933 138.528C94.7366 138.22 95.0668 137.868 95.2838 137.471C95.5111 137.071 95.6363 136.645 95.6596 136.194L97.6862 135.599Z" fill="white"/>
    <path d="M101.083 131.29L108.054 126.958L108.992 128.467L102.02 132.799L101.083 131.29ZM105.501 123.516L107.308 122.393L112.772 131.185L110.964 132.308L105.501 123.516ZM97.2378 128.65L99.0453 127.527L104.509 136.32L102.701 137.443L97.2378 128.65Z" fill="white"/>
    <defs>
        <linearGradient id="paint0_linear_1093_8927" x1="101.862" y1="42.7513" x2="52.1263" y2="113.059" gradientUnits="userSpaceOnUse">
            <stop stop-color="#F0BCA9"/>
            <stop offset="1" stop-color="#EFD8A9"/>
        </linearGradient>
        <linearGradient id="paint1_linear_1093_8927" x1="100.04" y1="47.4384" x2="53.9494" y2="109.413" gradientUnits="userSpaceOnUse">
            <stop stop-color="#F0D5A9"/>
            <stop offset="1" stop-color="#F0BEA9"/>
        </linearGradient>
        <linearGradient id="paint2_linear_1093_8927" x1="42.9787" y1="32.258" x2="106.737" y2="121.684" gradientUnits="userSpaceOnUse">
            <stop stop-color="white"/>
            <stop offset="1" stop-color="white" stop-opacity="0"/>
        </linearGradient>
        <linearGradient id="paint3_linear_1093_8927" x1="89.3888" y1="87.4609" x2="78.5962" y2="66.6306" gradientUnits="userSpaceOnUse">
            <stop stop-color="#010103"/>
            <stop offset="1" stop-color="#010103" stop-opacity="0.2"/>
        </linearGradient>
    </defs>
</svg>