<svg class="watch-button-icon" viewBox="0 0 156 156" fill="none" xmlns="http://www.w3.org/2000/svg">
    <circle cx="77.6453" cy="77.6446" r="46.3508" transform="rotate(3.61711 77.6453 77.6446)" fill="url(#paint0_linear_1093_45210)" fill-opacity="0.3"/>
    <circle cx="77.6456" cy="77.6441" r="35.9349" transform="rotate(3.6171 77.6456 77.6441)" fill="url(#paint1_linear_1093_45210)"/>
    <path d="M117.247 40.3126C112.341 35.1153 106.459 30.9352 99.9379 28.011C93.4166 25.0868 86.3831 23.4756 79.2391 23.2696C72.0952 23.0636 64.9805 24.2667 58.3015 26.8102C51.6225 29.3537 45.5098 33.1879 40.3126 38.0938" stroke="url(#paint2_linear_1093_45210)" stroke-opacity="0.5" stroke-width="1.04159" stroke-linecap="round"/>
    <path class="watch-button-icon-play" d="M84.9204 77.2129C85.7537 77.694 85.7537 78.8968 84.9204 79.3779L74.4204 85.4401C73.5871 85.9212 72.5454 85.3198 72.5454 84.3576V72.2332C72.5454 71.271 73.5871 70.6696 74.4204 71.1507L84.9204 77.2129Z" stroke="url(#paint3_linear_1093_45210)" stroke-width="1.5" stroke-linecap="round"/>
    <path d="M24.072 62.6536L22.5219 62.2995L21.4105 67.1642L20.3284 66.9169L21.736 60.7557L28.0435 62.1968L26.6381 68.3482L25.556 68.101L26.6652 63.2461L25.0956 62.8875L24.1869 66.865L23.1632 66.6312L24.072 62.6536Z" fill="white"/>
    <path d="M26.0392 74.6025L25.9116 76.2175L22.5938 72.8858L22.557 72.8427L19.8848 70.3545L20.0124 68.7395L23.5026 72.1751L23.5301 72.2074L26.0392 74.6025ZM26.3268 70.9639L23.455 72.9037L23.4235 72.9212L19.4593 75.7377L19.5925 74.0529L22.6599 72.0484L22.6822 72.02L26.4544 69.3489L26.3268 70.9639Z" fill="white"/>
    <path d="M21.6398 78.6775L22.6973 78.6047L22.9004 81.5578C22.9246 81.9103 23.0369 82.1832 23.2373 82.3766C23.4444 82.5695 23.7175 82.6543 24.0567 82.6309C24.4092 82.6067 24.6715 82.4851 24.8435 82.2661C25.0156 82.0471 25.0895 81.7614 25.0653 81.4089L24.8731 78.6155L19.5557 78.9812L19.4645 77.6543L25.9192 77.2104L26.1943 81.2109C26.219 81.5701 26.1989 81.9089 26.1339 82.2275C26.0694 82.5527 25.9554 82.8378 25.7918 83.083C25.6287 83.3348 25.4121 83.5368 25.1419 83.689C24.8717 83.8412 24.5404 83.9308 24.148 83.9578C23.7622 83.9843 23.4284 83.9405 23.1466 83.8262C22.8647 83.7119 22.6291 83.541 22.4397 83.3135C22.2575 83.0921 22.1154 82.8246 22.0137 82.5108C21.919 82.2033 21.8593 81.8699 21.8346 81.5108L21.6398 78.6775Z" fill="white"/>
    <path d="M23.1221 86.8591L21.5683 87.1963L22.6267 92.0728L21.542 92.3082L20.2014 86.132L26.5242 84.7597L27.8626 90.9261L26.7779 91.1616L25.7216 86.2949L24.1482 86.6364L25.0136 90.6235L23.9875 90.8463L23.1221 86.8591Z" fill="white"/>
    <path d="M22.1471 94.4625L28.1847 92.1369L29.7626 96.2334C29.9424 96.7 30.0328 97.1296 30.034 97.522C30.0437 97.9184 29.9489 98.2657 29.7495 98.5639C29.5562 98.8598 29.2481 99.0893 28.8251 99.2522C28.5389 99.3624 28.2771 99.4061 28.0397 99.3833C27.8023 99.3604 27.5866 99.2827 27.3927 99.1502C27.2012 99.024 27.0269 98.8589 26.8698 98.6551C26.7189 98.4489 26.5838 98.2187 26.4645 97.9646L26.4888 97.8052C26.6503 98.2431 26.7508 98.6152 26.7902 98.9215C26.8358 99.2254 26.7979 99.4794 26.6764 99.6833C26.5636 99.8911 26.3392 100.06 26.0032 100.189L24.5662 100.743L24.0881 99.5015L25.4412 98.9803C25.6714 98.8917 25.8331 98.783 25.9264 98.6542C26.0259 98.523 26.0597 98.342 26.028 98.1113C25.9987 97.8869 25.9086 97.5787 25.7576 97.1867L24.8554 94.8445L22.6251 95.7036L22.1471 94.4625ZM25.8259 94.4707L26.9258 97.3262C27.06 97.6745 27.2458 97.9066 27.4833 98.0223C27.7232 98.1442 27.9862 98.1501 28.2723 98.0399C28.5461 97.9344 28.7185 97.7608 28.7897 97.5191C28.8633 97.2835 28.833 96.9916 28.6988 96.6432L27.5989 93.7877L25.8259 94.4707Z" fill="white"/>
    <path d="M31.5918 100.287L32.2108 101.464L26.4841 104.475L25.8652 103.298L31.5918 100.287Z" fill="white"/>
    <path d="M30.8216 106.621L29.5032 107.51L32.2925 111.647L31.3721 112.268L27.8394 107.027L33.2042 103.411L36.7314 108.643L35.811 109.263L33.0273 105.134L31.6923 106.034L33.9729 109.417L33.1023 110.004L30.8216 106.621Z" fill="white"/>
    <path d="M38.2151 117.966L37.803 117.778L41.6668 114.121L42.581 115.087L37.882 119.534L36.9677 118.568L37.084 111.257L37.4962 111.445L33.6614 115.075L32.7471 114.109L37.4462 109.661L38.3605 110.627L38.2151 117.966Z" fill="white"/>
    <path d="M47.6796 124.287C47.3217 124.669 46.9104 124.916 46.4457 125.028C45.981 125.14 45.4795 125.117 44.9413 124.959C44.4031 124.8 43.8421 124.505 43.2584 124.072C42.7711 123.71 42.3656 123.323 42.042 122.908C41.7237 122.498 41.5007 122.071 41.3729 121.628C41.2505 121.189 41.232 120.744 41.3176 120.292C41.407 119.836 41.6186 119.383 41.9521 118.933C42.2856 118.483 42.6578 118.149 43.0686 117.931C43.4794 117.713 43.9128 117.598 44.3687 117.588C44.834 117.576 45.3092 117.662 45.7942 117.848C46.2885 118.032 46.7794 118.304 47.2667 118.666C47.8504 119.098 48.2943 119.552 48.5982 120.026C48.9075 120.505 49.0742 120.985 49.0981 121.468C49.1261 121.945 49.0047 122.411 48.7338 122.866L47.6735 122.079C47.7706 121.803 47.7958 121.523 47.7489 121.239C47.7113 120.954 47.5958 120.673 47.4022 120.397C47.2087 120.121 46.9352 119.852 46.5818 119.589C46.1426 119.264 45.7054 119.048 45.2702 118.941C44.8389 118.828 44.4329 118.839 44.0523 118.971C43.6757 119.099 43.3424 119.358 43.0526 119.749C42.7667 120.134 42.6175 120.526 42.6051 120.923C42.5926 121.321 42.7007 121.712 42.9295 122.098C43.1623 122.478 43.4982 122.83 43.9374 123.156C44.2908 123.418 44.6251 123.6 44.9404 123.701C45.2609 123.805 45.5611 123.837 45.8409 123.796C46.126 123.758 46.3855 123.66 46.6193 123.501L47.6796 124.287Z" fill="white"/>
    <path d="M50.4485 125.41L49.7108 126.818L54.131 129.134L53.616 130.117L48.0175 127.184L51.0198 121.453L56.6093 124.381L56.0943 125.364L51.6828 123.054L50.9358 124.48L54.5499 126.373L54.0627 127.303L50.4485 125.41Z" fill="white"/>
    <path d="M60.0789 125.829L66.6287 127.73L66.3193 128.796L59.7695 126.895L60.0789 125.829ZM62.4496 127.527L63.7269 127.897L62.1938 133.179L60.9165 132.809L62.4496 127.527Z" fill="white"/>
    <path d="M68.7153 130.827L73.803 131.484L73.6607 132.585L68.573 131.928L68.7153 130.827ZM73.927 128.808L75.2461 128.979L74.4167 135.395L73.0977 135.225L73.927 128.808ZM67.8972 128.029L69.2162 128.199L68.3868 134.616L67.0678 134.445L67.8972 128.029Z" fill="white"/>
    <path d="M77.8153 132.714L77.8587 134.304L82.8468 134.167L82.8771 135.277L76.5595 135.449L76.3829 128.982L82.6905 128.81L82.7208 129.919L77.7427 130.055L77.7866 131.665L81.8651 131.553L81.8938 132.603L77.8153 132.714Z" fill="white"/>
    <path d="M88.903 131.649L89.2631 133.198L94.1235 132.068L94.3749 133.149L88.2191 134.58L86.7537 128.278L92.8997 126.849L93.1511 127.93L88.3005 129.058L88.6652 130.626L92.6392 129.702L92.877 130.725L88.903 131.649Z" fill="white"/>
    <path d="M102.122 128.798L101.799 129.116L99.761 124.202L100.99 123.692L103.468 129.669L102.24 130.178L95.4511 127.462L95.7739 127.144L97.7968 132.021L96.5683 132.531L94.0895 126.554L95.318 126.045L102.122 128.798Z" fill="white"/>
    <path d="M108.121 127.066L102.289 123.063L103.539 122.291L108.692 125.973L108.301 126.215L107.309 119.964L108.543 119.202L109.534 126.194L108.121 127.066Z" fill="white"/>
    <path d="M109.353 118.457L110.402 117.639L114.381 122.741L113.332 123.559L109.353 118.457Z" fill="white"/>
    <path d="M116.658 120.995L112.108 116.396L115.229 113.308C115.584 112.956 115.941 112.701 116.3 112.543C116.66 112.375 117.016 112.323 117.369 112.386C117.718 112.445 118.051 112.635 118.37 112.957C118.586 113.175 118.731 113.398 118.805 113.624C118.879 113.851 118.894 114.08 118.851 114.31C118.812 114.537 118.73 114.762 118.607 114.988C118.478 115.209 118.321 115.425 118.136 115.636L117.981 115.678C118.317 115.354 118.618 115.113 118.883 114.954C119.143 114.79 119.391 114.723 119.626 114.753C119.862 114.773 120.106 114.911 120.359 115.167L121.442 116.262L120.497 117.197L119.477 116.166C119.304 115.991 119.139 115.887 118.984 115.853C118.824 115.814 118.644 115.856 118.446 115.977C118.252 116.094 118.006 116.3 117.707 116.595L115.923 118.361L117.604 120.06L116.658 120.995ZM115.191 117.621L117.367 115.469C117.632 115.207 117.77 114.943 117.781 114.679C117.797 114.411 117.696 114.168 117.481 113.95C117.275 113.741 117.046 113.653 116.796 113.684C116.551 113.711 116.296 113.856 116.03 114.119L113.855 116.271L115.191 117.621Z" fill="white"/>
    <path d="M125.742 111.021C125.245 111.723 124.711 112.247 124.139 112.594C123.566 112.932 122.981 113.09 122.384 113.068C121.791 113.04 121.209 112.825 120.637 112.421C120.06 112.013 119.66 111.534 119.436 110.984C119.217 110.428 119.173 109.826 119.305 109.177C119.436 108.518 119.75 107.838 120.246 107.135C120.747 106.428 121.284 105.905 121.857 105.568C122.425 105.226 123.005 105.069 123.598 105.096C124.195 105.118 124.782 105.333 125.359 105.741C125.931 106.145 126.327 106.625 126.546 107.18C126.77 107.73 126.818 108.332 126.691 108.985C126.558 109.634 126.242 110.313 125.742 111.021ZM124.803 110.357C125.111 109.921 125.315 109.494 125.415 109.075C125.519 108.651 125.503 108.252 125.367 107.878C125.235 107.499 124.965 107.165 124.557 106.876C124.149 106.588 123.744 106.444 123.342 106.446C122.945 106.443 122.563 106.561 122.198 106.8C121.831 107.031 121.493 107.364 121.185 107.799C120.881 108.229 120.678 108.661 120.576 109.095C120.468 109.525 120.48 109.929 120.612 110.308C120.744 110.687 121.014 111.021 121.422 111.31C121.83 111.599 122.235 111.742 122.637 111.74C123.038 111.738 123.423 111.615 123.793 111.369C124.162 111.124 124.499 110.787 124.803 110.357Z" fill="white"/>
    <path d="M130.933 98.7878L130.911 99.2404L126.082 97.0094L126.639 95.802L132.513 98.5152L131.955 99.7227L125.123 102.328L125.145 101.875L129.938 104.089L129.38 105.297L123.507 102.583L124.065 101.376L130.933 98.7878Z" fill="white"/>
    <path d="M134.328 90.2903L134.178 90.9023L129.419 85.9077L129.736 84.6158L136.02 86.1539L135.704 87.4458L131.139 86.3284L131.302 86.039L135.074 90.0198L134.72 91.4671L129.555 93.2607L129.544 92.9285L134.09 94.0411L133.773 95.333L127.489 93.7948L127.805 92.503L134.328 90.2903Z" fill="white"/>
    <path d="M133.623 82.5036L135.209 82.6107L135.545 77.632L136.653 77.7068L136.227 84.0125L129.772 83.5765L130.197 77.2809L131.304 77.3556L130.969 82.3243L132.575 82.4328L132.85 78.3621L133.898 78.4328L133.623 82.5036Z" fill="white"/>
    <path d="M134.755 68.9596L134.965 69.3608L129.671 69.8846L129.54 68.5611L135.979 67.924L136.109 69.2476L131.539 74.9553L131.329 74.5541L136.583 74.0342L136.714 75.3578L130.275 75.9948L130.144 74.6712L134.755 68.9596Z" fill="white"/>
    <path d="M129.342 67.1905L127.578 60.6025L128.65 60.3154L130.414 66.9034L129.342 67.1905ZM129.568 64.2832L129.224 62.9984L134.537 61.576L134.881 62.8608L129.568 64.2832Z" fill="white"/>
    <defs>
        <linearGradient id="paint0_linear_1093_45210" x1="101.862" y1="42.7513" x2="52.1263" y2="113.059" gradientUnits="userSpaceOnUse">
            <stop stop-color="#F0BCA9"/>
            <stop offset="1" stop-color="#EFD8A9"/>
        </linearGradient>
        <linearGradient id="paint1_linear_1093_45210" x1="100.04" y1="47.4379" x2="53.9494" y2="109.413" gradientUnits="userSpaceOnUse">
            <stop stop-color="#F0D5A9"/>
            <stop offset="1" stop-color="#F0BEA9"/>
        </linearGradient>
        <linearGradient id="paint2_linear_1093_45210" x1="42.9787" y1="32.258" x2="106.737" y2="121.684" gradientUnits="userSpaceOnUse">
            <stop stop-color="white"/>
            <stop offset="1" stop-color="white" stop-opacity="0"/>
        </linearGradient>
        <linearGradient id="paint3_linear_1093_45210" x1="89.3888" y1="87.4609" x2="78.5962" y2="66.6306" gradientUnits="userSpaceOnUse">
            <stop stop-color="#010103"/>
            <stop offset="1" stop-color="#010103" stop-opacity="0.2"/>
        </linearGradient>
    </defs>
</svg>
