<svg class="sm-icon" viewBox="0 0 40 40" fill="none" xmlns="http://www.w3.org/2000/svg">
    <g>
        <circle class="sm-icon-bg" cx="20" cy="20" r="20" fill="#2D303D" fill-opacity="0.2"/>
        <circle class="sm-icon-bg" cx="20" cy="20" r="20" fill="url(#paint0_radial_1242_1788)"/>
        <circle class="sm-icon-bg" cx="20" cy="20" r="20" fill="url(#paint1_radial_1242_1788)"/>
        <circle class="sm-icon-bg hover" cx="20" cy="20" r="20" fill="url(#paint0_linear_980_1273)"/>
    </g>
    <path class="sm-icon-path" fill-rule="evenodd" clip-rule="evenodd" d="M27.1098 14.3881C27.8881 14.6017 28.501 15.2309 28.709 16.03C29.087 17.4782 29.087 20.5 29.087 20.5C29.087 20.5 29.087 23.5217 28.709 24.97C28.501 25.7691 27.8881 26.3983 27.1098 26.612C25.6995 27 20.0435 27 20.0435 27C20.0435 27 14.3875 27 12.977 26.612C12.1988 26.3983 11.5859 25.7691 11.3779 24.97C11 23.5217 11 20.5 11 20.5C11 20.5 11 17.4782 11.3779 16.03C11.5859 15.2309 12.1988 14.6017 12.977 14.3881C14.3875 14 20.0435 14 20.0435 14C20.0435 14 25.6995 14 27.1098 14.3881ZM18.3472 17.9565V23.6087L22.8689 20.7827L18.3472 17.9565Z" fill="#EFDAA9"/>
    <defs>
        <radialGradient id="paint0_radial_1242_1788" cx="0" cy="0" r="1" gradientUnits="userSpaceOnUse" gradientTransform="translate(20 18.5) rotate(90) scale(23)">
            <stop offset="0.599181" stop-color="white" stop-opacity="0"/>
            <stop offset="0.899181" stop-color="white" stop-opacity="0.1"/>
            <stop offset="1" stop-color="white" stop-opacity="0.6"/>
        </radialGradient>
        <radialGradient id="paint1_radial_1242_1788" cx="0" cy="0" r="1" gradientUnits="userSpaceOnUse" gradientTransform="translate(20 18) rotate(90) scale(24 23.7067)">
            <stop offset="0.539246" stop-color="#EFDDA9" stop-opacity="0"/>
            <stop offset="0.644881" stop-color="#EFDDA9" stop-opacity="0.0479951"/>
            <stop offset="0.7295" stop-color="#EFDDA9" stop-opacity="0.1"/>
            <stop offset="1" stop-color="#EFDDA9" stop-opacity="0.6"/>
        </radialGradient>
        <linearGradient id="paint0_linear_980_1273" x1="6.66667" y1="14.2222" x2="39.0473" y2="8.08953" gradientUnits="userSpaceOnUse">
            <stop stop-color="#EFDDA9"/>
            <stop offset="1" stop-color="#F0A8A8"/>
        </linearGradient>
    </defs>
</svg>