<svg width="15" height="25" viewBox="0 0 15 25" fill="none" xmlns="http://www.w3.org/2000/svg">
<path fill-rule="evenodd" clip-rule="evenodd" d="M0.755328 11.0643C0.276235 11.3219 0.252201 12.0615 0.711833 12.279L2.44044 13.37C2.44273 13.3751 2.44389 13.3802 2.44561 13.3854L4.97044 19.4991C5.11926 19.8603 5.47641 20.0967 5.87308 20.0967H5.9475C6.3974 20.0967 6.68705 20.3228 6.84102 20.6725L8.14893 23.4252C8.21074 23.7749 8.56161 24.0016 8.9497 24.0016H13.8975C14.5981 24.0016 15.0697 23.2964 14.791 22.6645L12.7756 18.0985C12.6199 18.1059 12.2724 17.4889 11.8803 17.4935C11.4791 17.4975 11.1168 17.2605 10.9662 16.8959L9.48261 12.667C9.07049 12.3059 8.71389 12.0701 8.31665 12.0701C8.71389 12.0701 9.07049 11.8336 9.48261 11.4725L10.9662 7.24363C11.1122 6.88932 11.4591 6.63803 11.8478 6.64605C12.2444 6.65463 12.6056 6.42622 12.763 6.07019L14.791 1.47505C15.0697 0.843127 14.5981 0.137939 13.8975 0.137939H8.9497C8.56161 0.137939 8.21074 0.364583 8.14893 0.714315L6.84102 3.46697C6.68705 3.8167 6.3974 4.04278 5.9475 4.04278H5.87308C5.47641 4.04278 5.11926 4.27918 4.97044 4.64036L2.76384 9.98367L0.755328 11.0643Z" fill="#A36ABC"/>
</svg>
