<svg width="25" height="15" viewBox="0 0 25 15" fill="none" xmlns="http://www.w3.org/2000/svg">
<path fill-rule="evenodd" clip-rule="evenodd" d="M13.4127 0.717486C13.1545 0.238393 12.4877 0.214359 12.1975 0.673991L11.1065 2.40261C11.1013 2.40433 11.0962 2.40548 11.091 2.40776L4.9773 4.93202C4.61612 5.08141 4.37972 5.43859 4.37972 5.83526V5.9091C4.37972 6.29775 4.15362 6.64862 3.80389 6.9165L1.39125 8.01779C0.70152 8.17233 0.474854 8.97712 0.474854 8.91187V13.8591C0.474854 14.5602 1.18004 15.0319 1.81196 14.7531L6.37794 12.7377C6.73111 13.0812 6.98754 12.2346 6.98353 11.8419C6.97896 11.4407 7.21593 11.0784 7.58054 10.9278L11.81 9.18204C12.1706 9.03265 12.407 8.67547 12.407 8.2788C12.407 8.67547 12.6428 9.03265 13.004 9.18204L17.2334 10.9278C17.5871 11.0744 17.839 11.7761 17.831 11.8099C17.8224 12.2066 18.0508 12.9438 18.4068 12.7246L23.002 14.7531C23.6333 15.0319 24.3385 14.5602 24.3385 13.8591V8.91187C24.3385 8.97712 24.1124 8.17233 23.7627 8.01779L21.01 6.9165C20.6603 6.64862 20.4336 6.29775 20.4336 5.9091V5.83526C20.4336 5.43859 20.1978 5.08141 19.8366 4.93202L14.4928 2.72602L13.4127 0.717486Z" fill="#F0B1A8"/>
</svg>
