<svg width="92" height="91" viewBox="0 0 92 91" fill="none" xmlns="http://www.w3.org/2000/svg">
<path d="M11.524 46.2519L12.6251 35.0702L14.692 36.1925L13.5654 46.0131L12.9531 45.6988L20.4289 39.3075L22.5802 40.4756L21.2913 50.2263L20.6943 49.8839L28.3171 43.5906L30.3419 44.69L21.6057 51.7261L19.3138 50.4816L20.5597 40.9443L21.1503 41.265L13.8159 47.4964L11.524 46.2519Z" fill="white"/>
<path d="M30.9215 52.3352L31.2491 50.5897L37.9796 51.8527L37.652 53.5983L30.9215 52.3352ZM27.9736 54.0773L34.6635 44.8001L36.928 45.2251L39.8463 56.3054L37.5661 55.8775L35.1036 45.9246L36.1101 46.1134L30.238 54.5023L27.9736 54.0773Z" fill="white"/>
<path d="M41.5681 46.0939L52.4708 45.6429L52.5442 47.4174L41.6415 47.8684L41.5681 46.0939ZM46.0285 47.4628L48.1547 47.3748L48.5184 56.1673L46.3922 56.2552L46.0285 47.4628Z" fill="white"/>
<path d="M66.686 48.5992C66.828 49.4246 66.7461 50.1878 66.4403 50.8889C66.1346 51.5899 65.6209 52.2074 64.8993 52.7413C64.1778 53.2753 63.2591 53.7058 62.1434 54.033C61.212 54.3061 60.3258 54.4493 59.4849 54.4625C58.6542 54.4726 57.8943 54.3453 57.2053 54.0805C56.5265 53.8127 55.9405 53.4065 55.4473 52.8619C54.9512 52.3071 54.577 51.5998 54.3249 50.74C54.0728 49.8802 54.0057 49.0829 54.1237 48.348C54.2417 47.6131 54.514 46.9497 54.9406 46.3577C55.3745 45.7525 55.9438 45.2298 56.6484 44.7898C57.3603 44.3365 58.182 43.9732 59.1134 43.7001C60.2291 43.3729 61.2363 43.2443 62.1349 43.3143C63.0438 43.3812 63.8178 43.6323 64.4567 44.0674C65.0926 44.4923 65.5701 45.097 65.8891 45.8816L63.8624 46.4759C63.6033 46.0851 63.27 45.7826 62.8627 45.5686C62.4626 45.3413 61.9929 45.2179 61.4535 45.1982C60.9142 45.1785 60.3067 45.2677 59.6312 45.4658C58.7919 45.7119 58.0939 46.0611 57.5373 46.5133C56.9778 46.9553 56.599 47.4832 56.4011 48.097C56.2001 48.7006 56.2092 49.376 56.4283 50.1232C56.6444 50.8602 57 51.4284 57.4951 51.8279C57.9902 52.2274 58.5941 52.4672 59.3067 52.5472C60.0164 52.617 60.7909 52.5288 61.6302 52.2827C62.3057 52.0846 62.86 51.8331 63.2931 51.5283C63.7364 51.2205 64.0665 50.868 64.2836 50.4709C64.5108 50.0707 64.6361 49.645 64.6593 49.1935L66.686 48.5992Z" fill="white"/>
<path d="M70.0825 44.2907L77.0542 39.9587L77.9916 41.4671L71.0199 45.7992L70.0825 44.2907ZM74.5005 36.5159L76.308 35.3928L81.7717 44.1855L79.9642 45.3086L74.5005 36.5159ZM66.2378 41.6502L68.0453 40.5271L73.5089 49.3198L71.7014 50.443L66.2378 41.6502Z" fill="white"/>
</svg>
