<svg width="149" height="131" viewBox="0 0 149 131" fill="none" xmlns="http://www.w3.org/2000/svg">
<path d="M24.072 38.6536L22.5219 38.2995L21.4105 43.1642L20.3284 42.9169L21.736 36.7557L28.0435 38.1968L26.6381 44.3482L25.556 44.101L26.6652 39.2461L25.0956 38.8875L24.1869 42.865L23.1632 42.6312L24.072 38.6536Z" fill="white"/>
<path d="M26.0392 50.6025L25.9116 52.2175L22.5938 48.8858L22.557 48.8427L19.8848 46.3545L20.0124 44.7395L23.5026 48.1751L23.5301 48.2074L26.0392 50.6025ZM26.3268 46.9639L23.455 48.9037L23.4235 48.9212L19.4593 51.7377L19.5925 50.0529L22.6599 48.0484L22.6822 48.02L26.4544 45.3489L26.3268 46.9639Z" fill="white"/>
<path d="M21.6398 54.6775L22.6973 54.6047L22.9004 57.5578C22.9246 57.9103 23.0369 58.1832 23.2373 58.3766C23.4444 58.5695 23.7175 58.6543 24.0567 58.6309C24.4092 58.6067 24.6715 58.4851 24.8435 58.2661C25.0156 58.0471 25.0895 57.7614 25.0653 57.4089L24.8731 54.6155L19.5557 54.9812L19.4645 53.6543L25.9192 53.2104L26.1943 57.2109C26.219 57.5701 26.1989 57.9089 26.1339 58.2275C26.0694 58.5527 25.9554 58.8378 25.7918 59.083C25.6287 59.3348 25.4121 59.5368 25.1419 59.689C24.8717 59.8412 24.5404 59.9308 24.148 59.9578C23.7622 59.9843 23.4284 59.9405 23.1466 59.8262C22.8647 59.7119 22.6291 59.541 22.4397 59.3135C22.2575 59.0921 22.1154 58.8246 22.0137 58.5108C21.919 58.2033 21.8593 57.8699 21.8346 57.5108L21.6398 54.6775Z" fill="white"/>
<path d="M23.1221 62.8591L21.5683 63.1963L22.6267 68.0728L21.542 68.3082L20.2014 62.132L26.5242 60.7597L27.8626 66.9261L26.7779 67.1616L25.7216 62.2949L24.1482 62.6364L25.0136 66.6235L23.9875 66.8463L23.1221 62.8591Z" fill="white"/>
<path d="M22.1471 70.4625L28.1847 68.1369L29.7626 72.2334C29.9424 72.7 30.0328 73.1296 30.034 73.522C30.0437 73.9184 29.9489 74.2657 29.7495 74.5639C29.5562 74.8598 29.2481 75.0893 28.8251 75.2522C28.5389 75.3624 28.2771 75.4061 28.0397 75.3833C27.8023 75.3604 27.5866 75.2827 27.3927 75.1502C27.2012 75.024 27.0269 74.8589 26.8698 74.6551C26.7189 74.4489 26.5838 74.2187 26.4645 73.9646L26.4888 73.8052C26.6503 74.2431 26.7508 74.6152 26.7902 74.9215C26.8358 75.2254 26.7979 75.4794 26.6764 75.6833C26.5636 75.8911 26.3392 76.0597 26.0032 76.1891L24.5662 76.7427L24.0881 75.5015L25.4412 74.9803C25.6714 74.8917 25.8331 74.783 25.9264 74.6542C26.0259 74.523 26.0597 74.342 26.028 74.1113C25.9987 73.8869 25.9086 73.5787 25.7576 73.1867L24.8554 70.8445L22.6251 71.7036L22.1471 70.4625ZM25.8259 70.4707L26.9258 73.3262C27.06 73.6745 27.2458 73.9066 27.4833 74.0223C27.7232 74.1442 27.9862 74.1501 28.2723 74.0399C28.5461 73.9344 28.7185 73.7608 28.7897 73.5191C28.8633 73.2835 28.833 72.9916 28.6988 72.6432L27.5989 69.7877L25.8259 70.4707Z" fill="white"/>
<path d="M31.5918 76.287L32.2108 77.4642L26.4841 80.4753L25.8652 79.2981L31.5918 76.287Z" fill="white"/>
<path d="M30.8216 82.621L29.5032 83.5098L32.2925 87.6474L31.3721 88.2679L27.8394 83.0274L33.2042 79.4109L36.7314 84.643L35.811 85.2635L33.0273 81.1341L31.6923 82.0341L33.9729 85.4172L33.1023 86.0041L30.8216 82.621Z" fill="white"/>
<path d="M38.2151 93.9659L37.803 93.7777L41.6668 90.1208L42.581 91.0868L37.882 95.5342L36.9677 94.5682L37.084 87.2572L37.4962 87.4454L33.6614 91.0748L32.7471 90.1088L37.4462 85.6614L38.3605 86.6274L38.2151 93.9659Z" fill="white"/>
<path d="M47.6796 100.287C47.3217 100.669 46.9104 100.916 46.4457 101.028C45.981 101.14 45.4795 101.117 44.9413 100.959C44.4031 100.8 43.8421 100.505 43.2584 100.072C42.7711 99.7105 42.3656 99.3227 42.042 98.9085C41.7237 98.4982 41.5007 98.0715 41.3729 97.6282C41.2505 97.1888 41.232 96.7436 41.3176 96.2924C41.407 95.8359 41.6186 95.3828 41.9521 94.9329C42.2856 94.4831 42.6578 94.149 43.0686 93.9308C43.4794 93.7125 43.9128 93.5981 44.3687 93.5876C44.834 93.5757 45.3092 93.6624 45.7942 93.8478C46.2885 94.0317 46.7794 94.3044 47.2667 94.6657C47.8504 95.0985 48.2943 95.552 48.5982 96.0264C48.9075 96.5047 49.0742 96.9851 49.0981 97.4676C49.1261 97.9448 49.0047 98.4108 48.7338 98.8657L47.6735 98.0795C47.7706 97.803 47.7958 97.5228 47.7489 97.2391C47.7113 96.9539 47.5958 96.6732 47.4022 96.397C47.2087 96.1207 46.9352 95.8515 46.5818 95.5895C46.1426 95.2639 45.7054 95.0476 45.2702 94.9407C44.8389 94.8284 44.4329 94.8386 44.0523 94.9714C43.6757 95.0988 43.3424 95.3579 43.0526 95.7489C42.7667 96.1345 42.6175 96.526 42.6051 96.9234C42.5926 97.3208 42.7007 97.7122 42.9295 98.0976C43.1623 98.4777 43.4982 98.8305 43.9374 99.1561C44.2908 99.4181 44.6251 99.5996 44.9404 99.7006C45.2609 99.8055 45.5611 99.8371 45.8409 99.7956C46.126 99.758 46.3855 99.6599 46.6193 99.5013L47.6796 100.287Z" fill="white"/>
<path d="M50.4485 101.41L49.7108 102.818L54.131 105.134L53.616 106.117L48.0175 103.184L51.0198 97.4531L56.6093 100.381L56.0943 101.364L51.6828 99.0535L50.9358 100.48L54.5499 102.373L54.0627 103.303L50.4485 101.41Z" fill="white"/>
<path d="M60.0789 101.829L66.6287 103.73L66.3193 104.796L59.7695 102.895L60.0789 101.829ZM62.4496 103.527L63.7269 103.897L62.1938 109.179L60.9165 108.809L62.4496 103.527Z" fill="white"/>
<path d="M68.7153 106.827L73.803 107.484L73.6607 108.585L68.573 107.928L68.7153 106.827ZM73.927 104.808L75.2461 104.979L74.4167 111.395L73.0977 111.225L73.927 104.808ZM67.8972 104.029L69.2162 104.199L68.3868 110.616L67.0678 110.445L67.8972 104.029Z" fill="white"/>
<path d="M77.8153 108.714L77.8587 110.304L82.8468 110.167L82.8771 111.277L76.5595 111.449L76.3829 104.982L82.6905 104.81L82.7208 105.919L77.7427 106.055L77.7866 107.665L81.8651 107.553L81.8938 108.603L77.8153 108.714Z" fill="white"/>
<path d="M88.903 107.649L89.2631 109.198L94.1235 108.068L94.3749 109.149L88.2191 110.58L86.7537 104.278L92.8997 102.849L93.1511 103.93L88.3005 105.058L88.6652 106.626L92.6392 105.702L92.877 106.725L88.903 107.649Z" fill="white"/>
<path d="M102.122 104.798L101.799 105.116L99.7609 100.202L100.989 99.6924L103.468 105.669L102.24 106.178L95.451 103.462L95.7739 103.144L97.7968 108.021L96.5682 108.531L94.0894 102.554L95.318 102.045L102.122 104.798Z" fill="white"/>
<path d="M108.121 103.066L102.289 99.0634L103.539 98.2912L108.692 101.973L108.301 102.215L107.309 95.9639L108.543 95.2021L109.534 102.194L108.121 103.066Z" fill="white"/>
<path d="M109.353 94.4574L110.402 93.6394L114.381 98.7409L113.332 99.5589L109.353 94.4574Z" fill="white"/>
<path d="M116.658 96.9951L112.108 92.3956L115.229 89.3081C115.584 88.9565 115.941 88.7015 116.3 88.5431C116.66 88.3753 117.016 88.323 117.369 88.3862C117.718 88.4446 118.051 88.635 118.37 88.9573C118.586 89.1753 118.731 89.3976 118.805 89.6243C118.879 89.851 118.894 90.0797 118.851 90.3104C118.812 90.5365 118.73 90.7623 118.607 90.988C118.478 91.2088 118.321 91.4248 118.136 91.636L117.981 91.6776C118.317 91.3541 118.618 91.1129 118.883 90.9541C119.143 90.7905 119.391 90.7235 119.626 90.753C119.862 90.7731 120.106 90.9112 120.359 91.1671L121.442 92.2618L120.497 93.1972L119.477 92.1664C119.304 91.9911 119.139 91.8865 118.984 91.8527C118.824 91.8141 118.644 91.8556 118.446 91.9771C118.252 92.0939 118.006 92.3 117.707 92.5954L115.923 94.3606L117.604 96.0597L116.658 96.9951ZM115.191 93.6213L117.367 91.4692C117.632 91.2066 117.77 90.9434 117.781 90.6795C117.797 90.4108 117.696 90.1675 117.481 89.9495C117.275 89.741 117.046 89.6526 116.796 89.6842C116.551 89.7112 116.296 89.856 116.03 90.1185L113.855 92.2706L115.191 93.6213Z" fill="white"/>
<path d="M125.742 87.0206C125.245 87.7228 124.711 88.2474 124.139 88.5942C123.566 88.9318 122.981 89.0896 122.384 89.0677C121.791 89.0404 121.209 88.8246 120.637 88.4205C120.06 88.0126 119.66 87.5336 119.436 86.9837C119.217 86.4283 119.173 85.8259 119.305 85.1766C119.436 84.518 119.75 83.8376 120.246 83.1354C120.747 82.4277 121.284 81.9051 121.857 81.5675C122.425 81.2261 123.005 81.0691 123.598 81.0965C124.195 81.1184 124.782 81.3333 125.359 81.7413C125.931 82.1454 126.327 82.6251 126.546 83.1805C126.77 83.7304 126.818 84.332 126.691 84.9851C126.558 85.6345 126.242 86.3129 125.742 87.0206ZM124.803 86.3567C125.111 85.9212 125.315 85.494 125.415 85.075C125.519 84.6506 125.503 84.2515 125.367 83.8779C125.235 83.4988 124.965 83.1649 124.557 82.8762C124.149 82.5876 123.744 82.4442 123.342 82.4462C122.945 82.4427 122.563 82.5608 122.198 82.8005C121.831 83.0309 121.493 83.3638 121.185 83.7993C120.881 84.2293 120.678 84.6612 120.576 85.0949C120.468 85.5248 120.48 85.9293 120.612 86.3084C120.744 86.6875 121.014 87.0214 121.422 87.31C121.83 87.5987 122.235 87.742 122.637 87.7401C123.038 87.7381 123.423 87.6146 123.793 87.3695C124.162 87.1243 124.499 86.7868 124.803 86.3567Z" fill="white"/>
<path d="M130.933 74.7878L130.911 75.2404L126.082 73.0094L126.639 71.802L132.513 74.5152L131.955 75.7227L125.123 78.3277L125.145 77.8751L129.938 80.0893L129.38 81.2967L123.507 78.5835L124.065 77.3761L130.933 74.7878Z" fill="white"/>
<path d="M134.328 66.2903L134.178 66.9023L129.419 61.9077L129.736 60.6158L136.02 62.1539L135.704 63.4458L131.139 62.3284L131.302 62.039L135.074 66.0198L134.72 67.4671L129.555 69.2607L129.544 68.9285L134.09 70.0411L133.773 71.333L127.489 69.7948L127.805 68.503L134.328 66.2903Z" fill="white"/>
<path d="M133.623 58.5036L135.209 58.6107L135.545 53.632L136.653 53.7068L136.227 60.0125L129.772 59.5765L130.197 53.2809L131.304 53.3556L130.969 58.3243L132.575 58.4328L132.85 54.3621L133.898 54.4328L133.623 58.5036Z" fill="white"/>
<path d="M134.755 44.9596L134.965 45.3608L129.671 45.8846L129.54 44.5611L135.979 43.924L136.109 45.2476L131.539 50.9553L131.329 50.5541L136.583 50.0342L136.714 51.3578L130.275 51.9948L130.144 50.6712L134.755 44.9596Z" fill="white"/>
<path d="M129.342 43.1905L127.578 36.6025L128.65 36.3154L130.414 42.9034L129.342 43.1905ZM129.568 40.2832L129.224 38.9984L134.537 37.576L134.881 38.8608L129.568 40.2832Z" fill="white"/>
</svg>
